<?xml version="1.0" encoding="utf-8"?>
<!-- Generator: Adobe Illustrator 17.0.0, SVG Export Plug-In . SVG Version: 6.00 Build 0)  -->
<!DOCTYPE svg PUBLIC "-//W3C//DTD SVG 1.1//EN" "http://www.w3.org/Graphics/SVG/1.1/DTD/svg11.dtd">
<svg version="1.1" id="Layer_1" xmlns="http://www.w3.org/2000/svg" xmlns:xlink="http://www.w3.org/1999/xlink" x="0px" y="0px"
	 width="1135.156px" height="726.5px" viewBox="0 0 1135.156 726.5" enable-background="new 0 0 1135.156 726.5"
	 xml:space="preserve">
<g opacity="0.1">
	<path fill="#231815" d="M216.138,591.109c0-3.923-3.692-7.384-7.615-7.384H34.305c-3.923,0-7.846,3.231-7.846,7.384v113.76H5
		l1.615,4.853c0.231,0.457,4.615,13.148,21.229,13.148h186.678c16.153,0,20.768-11.771,21.229-13.148l1.615-4.853h-21.229V591.109z
		 M32.459,591.339c0-0.923,0.923-1.391,1.846-1.391h173.987c0.923,0,1.846,0.462,1.846,1.391v115.607H32.459
		C32.459,706.946,32.459,591.339,32.459,591.339z M229.752,709.946c-2.077,3-6.461,6.923-14.999,6.923H28.075
		c-8.769,0-12.922-3.923-14.768-6.923H229.752z"/>
	<rect x="37.536" y="594.801" fill="#231815" width="167.526" height="106.146"/>
	<path fill="#231815" d="M779.864,399.585h83.532c2.077,0,6.923,0.233,8.076-4.154c1.154-4.387-2.538-6.23-5.307-8.076
		c-2.308-1.385-6.23-3.692-7.615-6.23c-2.769-4.382-3.923-13.384-4.16-22.152h105.453c5.307,0,9.922-4.154,9.922-9.692V157.757
		c0-5.307-4.377-10.153-9.685-10.153H682.256c-5.307,0-9.922,4.846-9.922,10.384v191.293c0,5.307,4.382,9.692,9.922,9.692h106.376
		c0,7.846-1.154,17.768-3.916,22.152c-1.615,2.541-5.077,4.615-7.622,6.23c-2.762,1.846-6.461,3.923-5.307,8.076
		C772.941,399.816,777.787,399.585,779.864,399.585z M680.179,157.757c0-1.154,0.695-2.308,1.848-2.308H959.85
		c1.154,0,1.846,1.154,1.846,2.308v166.372H680.179L680.179,157.757L680.179,157.757z M682.256,351.819
		c-1.154,0-1.846-1.385-1.846-2.769v-20.998h281.748v20.998h-0.231c0,1.154-0.692,2.769-1.846,2.769H682.256z M790.94,385.048
		c4.853-8.076,5.077-24.229,4.853-29.305h50.765c0,4.846,0.462,21.229,5.307,29.305c2.308,3.23,5.538,5.538,8.307,7.384h-77.069
		C785.863,390.355,789.094,388.047,790.94,385.048z"/>
	<rect x="687.102" y="162.372" fill="#231815" width="267.909" height="154.834"/>
	<path fill="#231815" d="M945.774,422.891l2.769-13.845h4.377c0.923,0,1.391,0.231,1.615,0.459c0.231,0.233,0.231,0.918,0,1.848
		l-2.307,11.538v0.231h0.231h6.23c0.692,0.231,0.692,0.231,0.692,0l2.308-12.922c0.238-1.615,0-3.002-0.692-3.923
		c-1.154-1.387-3-2.308-5.769-2.308h-5.307l1.154-6.23v-0.231h-0.231h-6.002c-0.231,0-0.231,0-0.231,0.231l-2.545,12.922
		c-0.455-3.921-3-6.228-7.839-6.685H922.69c-0.238,0-0.238,0-0.238,0.231l-5.07,25.383v0.238h0.231h6c0.238,0,0.238,0,0.238-0.238
		l1.154-6.226h5.307c0.231,0,0.461,0,0.461,0c3.692,0,7.615-2.074,9.692-6.004l-1.154,5.533v0.235h0.231h6
		C945.774,423.122,945.774,423.122,945.774,422.891z M929.621,418.045h-3.461l1.385-8.769h3.923c0.923,0,3.461,0.231,3.461,2.538
		C934.698,417.122,932.16,417.814,929.621,418.045z"/>
	<path fill="#231815" d="M964.234,404.2l-5.077,25.383v0.233h0.231h6.006c0.231,0,0.231,0,0.231-0.233l1.154-6.23h5.307
		c0.238,0,0.462,0,0.462,0c5.538,0,11.076-4.377,11.076-11.997c0.238-4.38-2.307-7.156-7.615-7.379h-11.538
		C964.234,403.969,964.234,403.969,964.234,404.2z M969.541,409.276h3.923c0.916,0,3.461,0.231,3.461,2.538
		c-0.238,5.31-2.769,6.006-5.307,6.23h-3.461L969.541,409.276z"/>
	<path fill="#231815" d="M1084.917,558.111v-90.224c0.231-4.384-3.461-7.846-7.845-7.846H949.235c-4.384,0-7.846,3.461-7.846,7.846
		v90.224c0,4.384,3.461,7.846,7.846,7.846h127.836C1081.456,565.957,1084.917,562.495,1084.917,558.111z M949.005,561.111
		c-1.608,0-2.762-1.154-2.762-2.769V468.81c0-1.615,1.154-2.769,2.762-2.769h128.298c1.615,0,2.769,1.154,2.769,2.769v89.532
		c0,1.615-1.154,2.769-2.769,2.769H949.005z"/>
	<rect x="954.081" y="469.964" fill="#231815" width="110.998" height="86.301"/>
	<path fill="#231815" d="M1072.687,508.5c-2.545,0-4.853,2.077-4.853,4.846c0,2.769,2.077,4.853,4.853,4.853
		c2.538,0,4.846-2.077,4.846-4.853C1077.533,510.576,1075.456,508.5,1072.687,508.5z"/>
	<path fill="#231815" d="M151.527,152.219h90.224c4.384,0,7.846-3.461,7.846-7.846V16.537c0.231-4.384-3.461-7.846-7.846-7.846
		h-90.224c-4.384,0-7.846,3.461-7.846,7.846v127.836C143.682,148.758,147.143,152.219,151.527,152.219z M148.527,16.537
		c0-1.615,1.154-2.769,2.769-2.769h89.532c1.615,0,2.769,1.154,2.769,2.769v128.298h0.231c0,1.615-1.154,2.769-2.769,2.769h-89.762
		c-1.615,0-2.769-1.154-2.769-2.769L148.527,16.537L148.527,16.537z"/>
	<rect x="153.604" y="21.614" fill="#231815" width="86.301" height="110.991"/>
	<path fill="#231815" d="M196.524,135.374c-2.538,0-4.846,2.077-4.846,4.846c0,2.538,2.077,4.846,4.846,4.846
		c2.538,0,4.846-2.077,4.846-4.846C201.139,137.451,199.062,135.374,196.524,135.374z"/>
	<path fill="#231815" d="M985.002,108.607c0.692,2.769,3.461,4.154,6.23,3.461l1.385,4.846c0.692,2.538,3.461,4.154,6.23,3.461
		l1.385,4.846c0.692,2.538,3.461,4.154,6.23,3.461l9.692-2.769c2.538-0.692,4.153-3.461,3.461-6.23l-10.845-38.535
		c-0.692-2.538-3.461-4.154-6.23-3.461l-9.692,2.769c-2.538,0.692-4.154,3.461-3.461,6.23l-1.385-4.846
		c-7.384-26.767,8.076-54.457,34.844-61.841c26.536-7.384,54.227,8.307,61.611,34.843l1.384,4.846
		c-0.699-2.538-3.461-4.154-6.23-3.461l-9.692,2.769c-2.538,0.692-4.153,3.461-3.461,6.23l10.845,38.536
		c0.692,2.538,3.461,4.154,6.23,3.461l5.077-1.385c5.769,2.538,17.768,6,34.85,1.846c3.923-0.923,6.922-0.462,8.307,1.615
		c1.615,2.308,0.692,6.461-1.846,10.153c-6,8.076-20.306,14.537-42.92,9.23c0.231-0.923-0.462-1.846-1.154-1.846l-16.153-3.692
		c-0.238,0-0.238,0-0.462,0c-0.692,0-1.391,0.462-1.615,1.385v0.231l-2.077-0.462c-0.916-0.231-2.07-0.231-2.762,0
		c-0.699,0.231-0.923,0.692-0.462,1.154c0.462,0.462,1.615,1.154,2.538,1.385l2.077,0.462l-0.238,0.692
		c-0.231,0.923,0.462,1.846,1.154,2.077l16.153,3.692c0.238,0,0.238,0,0.461,0c0.692,0,1.391-0.462,1.615-1.385
		c6,1.385,11.538,2.077,16.383,2.077c14.768,0,24.691-5.769,29.767-12.461c3.692-5.769,4.384-11.307,2.077-14.768
		c-2.077-3.231-6.468-4.154-11.775-3c-12.691,3.231-22.383,1.615-28.606-0.231c2.07-1.154,3.224-3.461,2.538-5.769l-1.385-4.846
		c2.538-0.692,4.154-3.461,3.461-6.23l-1.391-4.846c2.769-0.692,4.154-3.461,3.461-6.23l-6.461-23.998
		c-8.999-31.844-41.997-50.535-74.071-41.766c-31.844,8.999-50.535,41.997-41.766,74.071L985.002,108.607z"/>
	<path fill="#231815" d="M760.25,119.914h38.536c4.615,0,8.538-3.923,8.538-8.538V17.23c-0.231-4.846-3.923-8.538-8.538-8.538
		H760.25c-4.615,0-8.538,3.923-8.538,8.538v94.147C751.712,115.991,755.635,119.914,760.25,119.914z M755.865,17.23
		c0-3,2.538-5.538,5.531-5.538h37.389c3,0,5.538,2.538,5.538,5.538v92.993c0,3-2.545,5.538-5.538,5.538h-37.382
		c-3,0-5.531-2.538-5.531-5.538L755.865,17.23L755.865,17.23z"/>
	<rect x="758.635" y="27.613" fill="#231815" width="41.773" height="73.379"/>
	<path fill="#231815" d="M774.556,22.537h10.384c0.461,0,0.923-0.462,0.923-0.923s-0.462-0.923-0.923-0.923h-10.384
		c-0.462,0-0.923,0.462-0.923,0.923S774.095,22.537,774.556,22.537z"/>
	<path fill="#231815" d="M779.864,103.3c-2.769,0-5.307,2.308-5.307,5.307c0,3,2.307,5.307,5.307,5.307s5.307-2.308,5.307-5.307
		C784.94,105.607,782.633,103.3,779.864,103.3z"/>
	<g>
		<path fill="#231815" d="M875.164,635.644c4.615,0,8.538-3.92,8.538-8.535v-38.531c-0.231-4.853-3.923-8.538-8.538-8.538h-94.147
			c-4.615,0-8.538,3.923-8.538,8.538v38.529c0,4.615,3.923,8.535,8.538,8.535h94.147V635.644z M776.633,625.952V588.57
			c0-3,2.538-5.538,5.531-5.538h92.769c3,0,5.538,2.541,5.538,5.538v37.382h0.231c0,3-2.538,5.531-5.538,5.531h-92.993
			C779.171,631.49,776.633,628.952,776.633,625.952z"/>
		<rect x="792.324" y="586.955" fill="#231815" width="73.379" height="41.766"/>
		<path fill="#231815" d="M871.703,613.722c0.461,0,0.923-0.459,0.923-0.916v-10.384c0-0.462-0.462-0.923-0.923-0.923
			c-0.455,0-0.916,0.462-0.916,0.923v10.384C870.78,613.261,871.241,613.722,871.703,613.722z"/>
		<path fill="#231815" d="M789.555,607.723c-0.231-3-2.538-5.307-5.307-5.307c-3,0-5.307,2.307-5.307,5.307
			c0,2.769,2.307,5.307,5.307,5.307C787.017,613.03,789.555,610.722,789.555,607.723z"/>
	</g>
	<path fill="#231815" d="M219.368,212.907v1.384c0,2.077-1.154,3.231-3.231,3.231h-1.615c-0.231-1.385-1.615-2.077-3.692-2.077
		H198.37c-1.846,0-3.461,0.692-3.692,2.077h-4.154c-2.077,0-3.923,2.077-3.923,4.154v0.923v1.385v48.919
		c0,2.077,1.846,3.231,3.923,3.231h98.3c2.077,0,3.923-1.385,3.923-3.231v-49.15v-1.385v-0.923c0.231-1.846-1.846-3.923-3.923-3.923
		h-25.613c-2.077,0-4.154-1.154-4.154-3.231v-1.384c0-2.077-1.154-3.231-3.231-3.231h-32.305
		C221.445,209.676,219.368,210.83,219.368,212.907z M239.905,264.364c-9.23,0-16.614-7.384-16.614-16.614
		c0-9.23,7.384-16.614,16.614-16.614s16.614,7.384,16.614,16.614C256.519,256.98,248.904,264.364,239.905,264.364z M227.675,217.522
		h24.229c1.154,4.846,5.769,7.846,11.307,7.846h21.691v42.689h-32.536c6.923-3.923,11.538-11.768,11.768-20.537
		c0-13.384-10.845-24.229-24.229-24.229s-24.229,10.845-24.229,24.229c0,8.769,4.615,16.614,11.768,20.537h-32.767v-42.689h21.691
		C221.906,225.367,226.291,222.368,227.675,217.522z"/>
	<path fill="#231815" d="M239.905,235.982c-1.385,0-2.769,0.231-4.154,0.692c1.154,0.461,2.077,1.615,2.077,3
		c0,1.846-1.615,3.461-3.461,3.461s-3.231-1.385-3.461-3.231c-1.846,2.077-2.769,4.615-2.769,7.615
		c0,6.461,5.307,11.768,11.768,11.768c6.461,0,11.768-5.307,11.768-11.768C251.443,241.289,246.135,235.982,239.905,235.982z"/>
	<path fill="#231815" d="M1035.998,410.661c6.006,0,10.845-4.846,10.845-10.843v-86.765c3.923-1.846,7.153-4.384,9.23-7.846
		c1.846-2.769,2.769-6.23,2.769-10.384c0.231-8.538-4.615-16.153-11.999-20.075v17.537l-10.845,6.23l-10.845-6.23v-17.537
		c-6.923,3.923-12.23,11.538-12.23,20.306c0,3.923,0.923,7.384,2.769,10.153c1.846,3.23,5.538,6,9.461,7.846v86.763
		C1025.152,405.815,1029.998,410.661,1035.998,410.661z M1035.767,402.585c-0.923-0.459-1.391-1.613-0.923-2.538
		c0.468-0.925,1.615-1.385,2.545-0.923c0.916,0.462,1.385,1.615,0.916,2.545C1037.613,402.585,1036.69,403.046,1035.767,402.585z
		 M1036.921,396.124c0.461-0.231,0.916-0.231,1.154,0.233c0.231,0.459,0,0.921-0.238,1.154c-0.455,0.235-0.916,0-1.154-0.233
		C1036.459,396.816,1036.459,396.354,1036.921,396.124z M1041.305,401.662c-0.231,1.615-1.154,3.228-2.762,3.923
		c-0.462,0.231-0.923,0-1.154-0.238c-0.238-0.457,0-0.916,0.231-1.154c0.923-0.457,1.846-1.611,1.846-2.764
		c0-0.921-0.231-1.613-0.692-2.543v0.235c-0.231-0.459,0-0.921,0.231-1.154c0.462-0.235,0.923,0,1.154,0.457
		C1041.074,398.893,1041.536,400.277,1041.305,401.662z M1017.307,300.131c3.923,6.23,12.23,9.461,21.921,9.461
		c3.692,0,7.153-0.692,10.146-1.615c-1.385,0.692-3,2.308-5.07,2.308l-0.238,0.231c-1.846,0.692-3.692,1.154-5.769,1.385
		c-0.462,0-0.916,0-0.916,0.231v83.071c0,0-0.461,0-0.699,0c-0.455,0-1.154,0-1.154,0.231v-83.071c-0.916,0-0.916,0-2.07,0v83.763
		c-0.923,0.692-2.307,1.846-3,3.461c-0.238,0.461-0.238,1.154-0.238,1.846c0,0,0,0,0,0.238c0,0,0,0,0,0.233
		c0,2.543,1.391,4.615,3.699,5.536h-0.231c-3-0.921-5.307-3.461-5.307-6.69v-89.303
		C1023.537,309.592,1018.691,305.9,1017.307,300.131z"/>
	<polygon fill="#231815" points="359.896,237.828 353.896,237.828 353.896,256.75 359.896,256.75 359.896,249.596 365.895,249.596 
		365.895,256.75 371.664,256.75 371.664,237.828 365.895,237.828 365.895,243.828 359.896,243.828 	"/>
	<polygon fill="#231815" points="374.664,243.828 379.74,243.828 379.74,256.75 385.74,256.75 385.74,243.828 391.509,243.828 
		391.509,237.828 374.664,237.828 	"/>
	<polygon fill="#231815" points="400.508,247.058 404.431,253.75 404.662,253.75 408.354,247.058 408.354,256.75 415.507,256.75 
		415.507,237.828 408.584,237.828 404.662,244.289 400.739,237.828 394.509,237.828 394.509,256.75 400.508,256.75 	"/>
	<polygon fill="#231815" points="433.275,249.596 424.276,249.596 424.276,237.828 418.276,237.828 418.276,256.75 433.275,256.75 	
		"/>
	<path fill="#231815" d="M441.813,264.595h-97.146l8.769,99.223l39.689,11.076l39.92-11.076L441.813,264.595z M423.353,288.593
		l-0.461,6l-0.231,2.769h-29.305h-17.076l1.154,11.999h16.153h24.921h3.23l-0.231,3.461l-2.769,32.305v2.077l-24.69,6.923h-0.231
		l-25.152-6.923l-1.615-18.922h5.538h6.692l0.923,9.692l13.614,3.461h0.231l13.384-3.461l1.154-15.691h-14.999h-27.229l-3-33.459
		l-0.231-3.231h30.459h30.459L423.353,288.593z"/>
	<path fill="#231815" d="M1093.455,612.107l-1.846-1.615l-2.307-0.692l-22.621-6.23l-5.307-1.387l-3.923,3.694
		c-2.762,2.538-5.531,3.692-8.076,3.692c-3.692,0-6.922-2.769-7.377-3l-3.923-4.384l-5.538,1.848l-18.691,5.074l-2.307,0.695
		l-1.846,1.613l-36.689,32.767l-6.692,6.002l5.077,7.158l13.614,19.379l5.307,7.619l8.076-4.853l6.923-4.154v42.458v9.922h9.922
		l69.225-0.231h9.922v-9.922v-42.458l7.846,4.382l7.846,4.38l5.07-7.384l13.391-19.376l4.846-7.16l-5.769-6.002L1093.455,612.107z
		 M1107.531,670.718l-22.614-12.922l-0.231,59.534l-69.225,0.231v-60.226l-21.921,13.384l-13.614-19.381l36.69-32.762l18.691-5.077
		c0,0,5.769,6.004,14.307,6.004c4.377,0,9.461-1.613,14.537-6.228l22.614,6.228l34.151,31.846L1107.531,670.718z"/>
	<path fill="#231815" d="M333.821,485.655h62.764c1.615,0,2.769-1.385,2.769-2.767v-45.915c0.231-1.615-1.154-2.769-2.769-2.769
		h-62.764c-1.615,0-2.769,1.391-2.769,2.769v45.913C331.052,484.501,332.436,485.655,333.821,485.655z M339.82,482.194v-0.462
		l17.306-17.768l3.923,3.692c0.692,0.692,1.385,1.154,2.307,1.387c0.923,0.235,1.846,0.459,2.538,0.459c0.923,0,1.615,0,2.538-0.231
		c0.692-0.231,1.385-0.462,1.846-0.692c0.231,0,0.231-0.233,0.462-0.233l3.923-3.92l17.306,17.766h-52.15V482.194z M395.662,477.81
		l-17.076-17.306l17.076-17.076V477.81z M392.203,439.274l-24.231,24.46c-0.231,0.238-0.462,0.461-0.923,0.695
		c-0.461,0-0.692,0.235-1.154,0.235c-0.231,0-0.462,0-0.923,0c-0.231,0-0.461-0.235-0.692-0.462l-24.46-24.921L392.203,439.274
		L392.203,439.274z M336.128,443.197h0.231l17.306,17.073l-17.306,17.539h-0.231V443.197z"/>
	<path fill="#231815" d="M86.686,209.676v19.383c0,2.538,1.846,4.615,4.615,4.615h38.997c2.538,0,5.077-2.077,5.077-4.615v-2.308h3
		c1.385,0,2.077-0.692,2.077-2.077V213.83c-0.231-1.154-0.923-1.846-2.077-1.846h-3v-2.308c0-2.538-2.538-4.615-5.077-4.615H91.301
		C88.763,205.061,86.686,207.138,86.686,209.676z M91.763,209.907h38.766v18.922h-0.231H91.763V209.907z"/>
	<rect x="94.762" y="213.138" fill="#231815" width="4.846" height="12.922"/>
	<rect x="103.531" y="213.138" fill="#231815" width="4.846" height="12.922"/>
	<path fill="#231815" d="M599.416,52.535h5.769v11.768c0,1.385,1.391,2.769,2.769,2.769c0.692,0,1.615-0.692,2.077-0.692
		l13.845-13.845h5.307c0,1.615,0.462,3,1.385,4.154c0.923,0.923,2.077,1.846,3.699,1.846h17.763l10.843,10.845
		c0.462,0,1.154,0.462,1.615,0.462c1.154,0,2.307-1.154,2.307-2.308v-8.999h4.384c3,0,5.536-2.769,5.536-6V23.46
		c-0.235-3-2.543-5.538-5.769-5.538H652.72v-9.23c0-3.923-2.769-6.692-6.692-6.692h-46.612c-3.92,0-7.153,2.769-7.153,6.692v36.689
		c0,1.846,0.692,3.923,2.077,5.077C595.724,51.842,597.339,52.535,599.416,52.535z M652.72,23.921h14.307
		c1.385,0,2.538,1.154,2.538,2.538c0,1.154-1.154,2.308-2.538,2.308H652.72V23.921z M652.72,34.767h14.307
		c1.385,0,2.538,1.154,2.538,2.538c0,1.154-1.154,2.308-2.538,2.308H652.72V34.767z M652.72,45.151v0.231h14.307
		c1.385,0,2.538,1.154,2.538,2.538c0,1.615-1.154,2.538-2.538,2.538h-15.922C652.258,48.381,652.72,46.997,652.72,45.151z
		 M597.339,8.923c0-1.154,1.154-2.077,2.308-2.077h46.15c1.154,0,2.074,0.692,2.074,2.077V44.92c0,1.385-0.697,2.538-2.074,2.538
		h-23.075c-0.692,0-1.387,0.231-1.846,0.692l-10.621,10.384v-8.999c0-1.385-0.916-2.077-2.307-2.077h-8.307
		c-1.391,0-2.308-1.385-2.308-2.538L597.339,8.923L597.339,8.923z"/>
	<path fill="#231815" d="M604.031,17.922h36.228c1.387,0,2.541-1.154,2.541-2.538s-1.154-2.538-2.541-2.538h-36.228
		c-1.385,0-2.538,1.154-2.538,2.538S602.646,17.922,604.031,17.922z"/>
	<path fill="#231815" d="M604.031,28.767h36.228c1.387,0,2.541-1.154,2.541-2.538s-1.154-2.538-2.541-2.538h-36.228
		c-1.385,0-2.538,1.154-2.538,2.538S602.646,28.767,604.031,28.767z"/>
	<path fill="#231815" d="M604.031,39.843h36.228c1.387,0,2.541-1.154,2.541-2.538c0-1.615-1.154-2.538-2.541-2.538h-36.228
		c-1.385,0-2.538,1.154-2.538,2.538S602.646,39.843,604.031,39.843z"/>
	<path fill="#231815" d="M869.857,83.455c5.538,3.692,12.461,5.769,19.614,5.769c23.537,0,36.228-19.383,36.228-36.228
		c0-0.462,0-1.154,0-1.615c2.538-1.846,4.384-4.154,6.461-6.692c-2.07,1.154-4.846,1.615-7.384,2.077
		c2.545-1.615,4.615-4.154,5.538-7.153c-2.538,1.385-5.307,2.538-8.076,3c-2.307-2.538-5.538-3.923-9.23-3.923
		c-7.153,0-12.691,5.769-12.691,12.691c0,0.923,0,2.077,0.231,3c-10.615-0.462-20.068-5.538-26.299-13.384
		c-1.154,1.846-1.615,4.154-1.615,6.461c0,4.384,2.307,8.307,5.769,10.615c-2.077,0-3.692-0.692-5.769-1.615c0,0,0,0,0,0.231
		c0,6.23,4.384,11.307,10.153,12.461c-1.154,0.231-2.308,0.462-3.461,0.462c-0.923,0-1.615,0-2.545-0.231
		c1.615,5.077,6.23,8.769,11.999,8.769c-4.384,3.461-9.922,5.538-15.922,5.538C871.934,83.686,870.78,83.686,869.857,83.455z"/>
	<path fill="#231815" d="M701.639,688.255h-11.307l-11.307,14.761c0,0,11.775-3.461,18.698-1.846l-18.698,24.229l24.69-19.152
		c3.461,7.839-2.07,19.152-2.07,19.152l14.999-11.302v-11.305l18.46-18.693l3.692-18.695l-18.46,3.923L701.639,688.255z"/>
	<path fill="#231815" d="M100.531,489.578c-10.153,0-19.383,4.615-25.152,11.999l9.23,15.922
		c1.615-6.692,8.076-11.999,15.922-11.999c0.462,0,0.923,0,1.385,0h26.306C122.683,495.578,112.299,489.578,100.531,489.578z"/>
	<path fill="#231815" d="M132.606,522.114c0-4.156-0.692-8.538-2.077-11.538h-18.46c3,3,4.846,6.923,4.846,11.538
		c0,3.461-1.154,6.461-3,9.23l-13.153,22.837C118.299,553.958,132.606,539.651,132.606,522.114z"/>
	<path fill="#231815" d="M100.531,510.115c-6.461,0-11.768,5.307-11.768,11.768s5.307,11.771,11.768,11.771
		s11.768-5.31,11.768-11.771S106.992,510.115,100.531,510.115z"/>
	<path fill="#231815" d="M68.226,521.883c0,16.153,11.999,29.536,27.459,31.844l9.23-16.383c-1.385,0.923-3,0.923-4.384,0.923
		c-6.692,0-12.23-3.699-14.999-9.23l-13.153-22.844C69.841,510.807,68.226,516.114,68.226,521.883z"/>
	<path fill="#231815" d="M1101.531,422.891c0.916,0,2.07-0.238,3.461-0.923c1.385-0.692,2.769-0.923,3.692-0.923
		c1.154,0,2.545,0.238,3.923,0.923c1.615,0.461,2.769,0.923,3.692,0.923c2.307,0,4.615-1.848,6.922-5.31
		c1.391-2.767,2.545-5.312,3.231-7.158c-1.615,0-3-1.615-4.154-3.226c-1.154-1.851-1.846-3.697-1.846-5.769
		c0-2.074,0.455-3.921,1.846-5.536c0.692-0.923,1.615-1.846,3-3.23c-0.923-1.154-1.846-2.074-2.769-2.769
		c-1.615-1.154-3.461-1.613-5.769-1.613c-1.154,0-2.769,0.235-4.615,0.921c-1.846,0.692-3,0.923-3.692,0.923
		c-0.692,0-1.846-0.233-3.699-0.692c-1.846-0.461-3.461-0.695-4.615-0.695c-3,0-5.531,1.387-7.615,3.918
		c-2.07,2.545-3,6.006-3,9.927c0,4.38,1.385,8.771,3.923,13.386C1095.989,420.583,1098.762,422.891,1101.531,422.891z"/>
	<path fill="#231815" d="M1109.838,382.048c-1.385,1.846-2.07,4.154-2.07,6.923c1.154,0,2.07-0.233,2.762-0.461
		c0.699-0.231,1.615-0.923,2.769-1.846c1.154-1.154,1.846-2.307,2.545-3.694c0.455-1.389,0.692-2.543,0.692-3.461
		c0,0,0-0.235,0-0.459c0-0.238,0-0.238,0-0.461v-0.231c0-0.231,0-0.231,0-0.231C1113.3,378.817,1111.223,380.202,1109.838,382.048z"
		/>
	<polygon fill="#231815" points="84.379,68.687 96.608,8.23 28.306,8.23 25.537,21.614 80.456,21.614 78.61,30.613 23.922,30.613 
		21.153,43.305 76.071,43.305 72.841,58.996 50.92,66.38 31.767,58.996 33.152,52.304 19.537,52.304 16.307,68.456 47.92,80.686 	
		"/>
	<path fill="#231815" d="M368.895,154.988c0.692-0.692,0.692-1.385,0.692-2.308v-13.845c0.231-0.923,0-1.615-0.461-2.308
		c-0.692-0.692-1.154-0.923-2.077-0.923s-1.615,0.231-2.308,0.923c-0.692,0.692-0.923,1.385-0.923,2.308v13.845
		c0,0.923,0.231,1.615,0.692,2.308c0.692,0.692,1.154,0.923,2.077,0.923C367.511,155.911,368.203,155.681,368.895,154.988z"/>
	<path fill="#231815" d="M350.897,170.449c0.692,0.692,1.385,0.923,2.308,0.923s1.846-0.231,2.538-0.923s1.154-1.385,1.154-2.308
		v-6.692h1.846c0.923,0,1.615-0.461,2.308-1.154s0.692-1.846,0.692-2.769v-20.768h-28.844v20.768h0.231
		c0,0.923,0.231,2.077,0.923,2.769c0.692,0.692,1.385,1.154,2.538,1.154h2.308v6.923c0,0.923,0.231,1.385,0.923,2.077
		c0.692,0.692,1.385,0.923,2.308,0.923s1.615-0.231,2.308-0.923s0.692-1.385,0.692-2.308v-6.692h4.846v6.692
		C349.974,169.064,350.204,169.756,350.897,170.449z"/>
	<path fill="#231815" d="M334.513,128.221c-1.385,2.077-2.077,4.615-2.077,6.692h29.536c0-2.077-0.692-4.615-2.077-6.692
		c-0.923-2.308-2.769-3.692-5.077-4.846l2.308-4.154c0.231-0.231,0-0.462-0.231-0.692c-0.231-0.231-0.462,0-0.692,0.231
		l-2.308,4.154c-2.077-0.923-4.154-1.385-6.461-1.385c-2.307,0-4.384,0.462-6.461,1.385l-2.308-4.154
		c-0.231-0.231-0.461-0.231-0.692-0.231c-0.231,0.231-0.231,0.231-0.231,0.692l2.308,4.154
		C337.744,124.529,335.898,126.144,334.513,128.221z M353.435,127.529c0.231-0.231,0.461-0.462,0.923-0.462
		c0.231,0,0.692,0.231,0.923,0.462c0.231,0.231,0.461,0.462,0.461,0.923c-0.231,0.462-0.231,0.692-0.461,0.923
		c-0.231,0.231-0.461,0.462-0.923,0.462c-0.231,0-0.692-0.231-0.923-0.462c-0.231-0.231-0.462-0.462-0.462-0.923
		C352.973,127.99,353.204,127.76,353.435,127.529z M339.82,127.529c0.231-0.231,0.462-0.462,0.923-0.462
		c0.231,0,0.692,0.231,0.923,0.462c0.231,0.231,0.461,0.462,0.461,0.923s0,0.692-0.461,0.923c-0.231,0.231-0.462,0.462-0.923,0.462
		s-0.692-0.231-0.923-0.462c-0.231-0.231-0.461-0.462-0.461-0.923C339.359,128.221,339.59,127.76,339.82,127.529z"/>
	<path fill="#231815" d="M331.975,138.836c0-0.923-0.462-1.615-1.154-2.308c-0.461-0.692-1.385-0.923-2.307-0.923
		c-0.923,0-1.615,0.231-2.308,0.923s-0.923,1.385-0.923,2.308v13.845c0,0.923,0.462,1.615,0.923,2.308
		c0.692,0.692,1.385,0.923,2.308,0.923c0.923,0,1.846-0.231,2.307-0.923c0.692-0.692,1.154-1.385,1.154-2.308V138.836z"/>
	<path fill="#231815" d="M175.525,388.047h75.456v-63.457h-75.456V388.047z M213.138,363.357h18.922v6h-18.922V363.357z
		 M187.524,363.357h6.923v-6.923h6v-6h-6v-6.923h-6.923v-6h6.923v6h6v6.923h6.923v6h-6.923v6.923h-6v6h-6.923V363.357z"/>
	<path fill="#231815" d="M172.756,313.515c-4.846,0-8.999,3.923-8.999,8.999v68.533c0,4.853,3.923,8.999,8.999,8.999h81.455
		c4.846,0,8.999-3.923,8.999-8.999v-68.533c-0.231-5.077-4.154-8.999-8.999-8.999H172.756z M257.673,322.514v68.533h0.231
		c0,2.077-1.846,3.923-3.923,3.923h-81.455c-2.077,0-3.923-1.846-3.923-3.923v-68.533c0-2.077,1.846-3.923,3.923-3.923h81.225
		C255.827,318.591,257.673,320.437,257.673,322.514z"/>
	<path fill="#231815" d="M520.268,247.058c-0.923-2.308-2.308-4.384-3.923-6s-3.692-3-6-3.923c-2.308-0.923-4.846-1.385-7.153-1.385
		c-2.308,0-4.846,0.462-7.153,1.385c-2.308,0.923-4.384,2.308-6,3.923c-1.615,1.615-3,3.692-3.923,6
		c-0.923,2.308-1.385,4.846-1.385,7.153c0,2.308,0.462,4.846,1.385,7.153c0.923,2.307,2.308,4.384,3.923,6
		c1.615,1.615,3.692,3,6,3.923s4.846,1.384,7.153,1.384c3.923,0,7.384-1.154,10.615-3.231l8.999,8.999
		c0.692,0.692,1.385,0.923,2.308,0.923c0.923,0,1.615-0.231,2.307-0.923s0.923-1.385,0.923-2.308s-0.231-1.846-0.923-2.308
		l-8.999-8.999c2.308-3.231,3.231-6.692,3.231-10.615C521.653,251.673,521.191,249.366,520.268,247.058z M511.269,262.518
		c-2.308,2.308-5.077,3.461-8.307,3.461c-3.23,0-6-1.154-8.307-3.461c-2.308-2.307-3.461-5.077-3.461-8.307s1.154-6,3.461-8.307
		s5.077-3.461,8.307-3.461c3.23,0,6,1.154,8.307,3.461s3.461,5.077,3.461,8.307C514.73,257.211,513.576,260.211,511.269,262.518z"/>
	<path fill="#231815" d="M1084.917,229.06c10.845,0.461,19.383,5.538,24.229,13.845c8.999-6.23,14.768-16.614,14.768-28.152
		c-0.238-19.152-15.46-34.613-34.382-34.613c-18.922,0-34.382,15.46-34.382,34.382c0,8.769,3.23,16.614,8.538,22.614
		C1068.995,231.829,1076.379,228.829,1084.917,229.06z M1105.685,226.752c0,0.923-1.615,1.385-2.769,0.692
		c-7.839-4.846-17.768-6-29.536-3.231c-1.154,0.231-2.307-0.462-2.538-1.615c-0.238-1.154,0.455-2.308,1.608-2.538
		c12.929-3,23.774-1.615,32.767,3.692C1106.146,224.444,1106.839,225.829,1105.685,226.752z M1110.3,217.06
		c-0.692,1.154-2.307,1.615-3.692,0.923c-8.999-5.538-23.075-7.153-33.697-3.923c-1.385,0.462-2.769-0.461-3.224-1.846
		c-0.462-1.385,0.455-2.769,1.846-3.231c12.23-3.692,27.69-1.846,38.074,4.384C1110.761,214.291,1111.223,215.907,1110.3,217.06z
		 M1069.688,196.985c11.992-3.692,31.844-3,44.297,4.615c1.615,0.923,2.077,2.769,1.154,4.384c-0.916,1.615-3,1.846-4.377,0.923
		c-10.845-6.461-28.844-7.153-39.228-3.923c-1.615,0.462-3.461-0.461-3.923-2.077
		C1067.149,199.293,1068.072,197.447,1069.688,196.985z"/>
	<path fill="#231815" d="M1097.839,247.981c-2.538-5.538-7.153-8.538-13.384-8.538c-4.846-0.231-8.769,1.615-11.768,5.307
		c4.846,2.769,10.615,4.384,16.614,4.384C1092.301,249.135,1095.07,248.673,1097.839,247.981z"/>
	<path fill="#231815" d="M705.331,400.277h-0.923l-0.231,0.231c-0.231,0.231-0.231,0.231-0.462,0.461
		c-0.231,0.231-0.461,0.231-0.692,0.231l-0.923,0.231h-7.846l-5.769-0.231h-3l-0.462,0.231h-3.461c-3.461,0-5.307-0.231-5.538-0.231
		l-1.385-0.923h-2.077v10.153c0.233,0.231,0.692,0.692,1.387,1.154c0.235,0,0.235-0.231,0.459-0.461
		c0.238-0.231,0.461-0.461,0.461-0.921c0.233-0.695,0.462-1.387,0.692-2.307c0.238-0.918,0.462-1.611,0.695-2.072
		c0.235-0.461,0.459-0.692,0.697-0.918c0.233-0.235,0.916-0.459,1.846-0.697c0.918-0.231,1.846-0.457,2.769-0.457
		c1.846,0,3.224,0,3.918,0.233c0.235,0,0.235,0,0.459,0.233c0,0,0.238,0.231,0.238,0.459c0,0.228,0,0.695,0,1.615
		c0,0.921,0,1.615,0,2.769c0,0.916,0,2.07,0,3.224l0.233,11.307c0,4.377,0,8.076-0.233,11.538c0,0.692-0.238,1.154-0.238,1.385
		c-0.459,0.238-1.613,0.697-4.154,1.391c-0.921,0.231-2.074,0.692-2.074,1.385v0.231v0.695c0,0,0,0.235,0,0.697
		c0.459,0,0.921,0,1.851,0c2.541-0.238,4.615-0.462,6.226-0.462c3.004,0,5.074,0,6.228,0.235c1.391,0.233,3.002,0.233,5.079,0.233
		c0.459,0,0.69,0,0.921,0c0-0.233,0-0.692,0-0.692s0-0.461-0.238-1.389c-0.455-0.233-0.69-0.233-1.385-0.459
		c-0.235,0-0.692-0.235-1.154-0.235c-0.462-0.235-0.918-0.235-1.154-0.235s-0.462-0.231-0.462-0.231
		c-0.692-0.233-1.611-0.464-2.307-0.923c-0.231-0.695-0.457-1.385-0.231-2.307v-3.918l-0.233-9.47v-8.769l0.238-4.154
		c0-0.692,0.231-1.846,0.457-3.692c0.697,0,1.154-0.238,1.851-0.238c0.692,0,1.846,0,3,0s2.077,0,2.769,0c0.692,0,0.916,0,1.154,0
		c0.231,0,0.462,0.238,0.692,0.461c0,0,0,0.235,0.231,0.692c0,0.462,0.238,1.154,0.238,1.851c0,0.695,0.231,1.154,0.461,1.611
		c0.455,1.615,0.916,2.545,1.385,3.461c0.462,0,1.154-0.231,1.846-0.457c0-0.235,0-0.697,0-1.389v-1.615l-0.916-2.307
		c0-2.308-0.238-3.461-0.238-3.461v-2.769C706.023,400.277,705.562,400.277,705.331,400.277z"/>
	<path fill="#231815" d="M718.714,407.43c0.692,0,0.923-0.233,1.154-0.692c0.238-0.238,0-0.923-0.231-1.391l-3.461-4.377
		c-0.462-0.461-0.692-0.695-1.391-0.695c-0.692,0-0.916,0.233-1.385,0.695l-3.231,4.377c-0.455,0.461-0.455,0.923-0.231,1.154
		c0.231,0.238,0.461,0.697,1.154,0.697h2.077v26.77h-2.07c-0.692,0-0.923,0.231-1.154,0.461c-0.231,0.231,0,0.692,0.231,1.154
		l3.23,4.377c0.462,0.461,0.692,0.697,1.385,0.697c0.699,0,0.923-0.235,1.391-0.697l3.461-4.377
		c0.462-0.461,0.462-0.923,0.231-1.154c-0.231,0-0.692-0.238-1.154-0.238h-1.615v-26.767L718.714,407.43L718.714,407.43z"/>
	<path fill="#231815" d="M314.207,65.687c0.692,2.769,1.615,5.307,2.769,7.384c1.154,2.077,2.769,3.923,4.384,5.538
		c1.846,1.615,3.692,3,5.769,3.923s4.615,1.846,7.153,2.538c2.769,0.692,5.538,1.154,8.307,1.385c2.769,0.231,6,0.462,9.23,0.462
		c3.461,0,6.461-0.231,9.461-0.462c2.769-0.231,5.538-0.692,8.307-1.385c2.769-0.692,5.077-1.385,7.384-2.538
		c2.077-0.923,4.154-2.308,6-3.923c1.846-1.615,3.23-3.461,4.615-5.538c1.154-2.077,2.077-4.615,2.769-7.384
		c0.692-2.769,0.923-6,0.923-9.692c0-6.692-2.308-12.23-6.461-16.845c0.231-0.692,0.462-1.385,0.692-2.077
		c0.231-0.692,0.462-1.846,0.462-3.231c0.231-1.385,0-3-0.231-5.077c-0.231-1.846-0.923-3.692-1.615-5.769h-0.461
		c-0.461,0-1.154,0-2.077,0s-2.077,0.231-3.23,0.692c-1.154,0.231-2.769,0.923-4.846,2.077c-1.846,0.923-3.923,2.308-6.23,3.692
		c-3.692-0.923-8.769-1.615-15.23-1.615c-6.461,0-11.538,0.462-15.23,1.615c-2.077-1.385-4.154-2.769-6.23-3.692
		s-3.461-1.615-4.615-2.077c-1.154-0.231-2.307-0.462-3.23-0.692c-0.923,0-1.615-0.231-1.846,0s-0.461,0-0.692,0.231
		c-0.692,1.846-1.385,3.923-1.615,5.769c-0.231,1.846-0.461,3.461-0.231,5.077c0.231,1.615,0.231,2.538,0.462,3.231
		s0.461,1.615,0.692,2.308c-4.154,4.615-6.23,9.692-6.23,16.614C313.284,59.226,313.515,62.688,314.207,65.687z M328.052,54.842
		c0.923-0.923,2.077-1.615,3.461-2.077c1.385-0.461,2.769-0.692,4.384-0.692s3.23,0,4.846,0s3.461,0.231,5.538,0.462
		c2.308,0.231,4.154,0.231,5.769,0.231c1.615,0,3.461,0,5.769-0.231c2.308-0.231,4.154-0.231,5.769-0.462c1.615,0,3.23,0,4.846,0
		s3.23,0.231,4.384,0.692c1.385,0.462,2.538,1.154,3.461,2.077c3.23,3,5.077,6.461,5.077,10.153c-0.231,2.308-0.461,4.384-1.154,6
		c-0.461,1.615-1.154,3-2.077,4.154c-0.923,1.154-2.077,2.077-3.461,3c-1.615,0.692-3,1.385-4.384,1.846
		c-1.385,0.462-3.23,0.692-5.538,0.923c-2.307,0.231-4.154,0.462-6,0.462s-3.923,0-6.692,0s-5.077,0-6.692,0
		c-1.846,0-3.692-0.231-6-0.462c-2.308-0.231-4.154-0.692-5.538-0.923c-1.385-0.462-3-1.154-4.384-1.846
		c-1.615-0.692-2.769-1.846-3.461-3c-0.923-1.154-1.615-2.769-2.077-4.384c-0.462-1.615-0.923-3-0.923-6
		C322.976,61.765,324.591,57.842,328.052,54.842z"/>
	<ellipse fill="#231815" cx="337.513" cy="64.303" rx="4.846" ry="7.384"/>
	<ellipse fill="#231815" cx="366.818" cy="64.303" rx="4.846" ry="7.384"/>
	<path fill="#231815" d="M634.49,257.903c0.923-0.923,1.387-2.308,1.615-3.923c0.462-1.385,0.231-3.231-0.461-5.077
		c-0.692-1.846-1.615-3.461-2.769-4.846l-3.92-3.923c-1.387-1.385-2.764-2.308-4.848-2.769c-1.846-0.692-3.692-0.923-5.307-0.692
		c-1.615,0.231-3,0.692-3.923,1.615l-35.766,35.766l-6,25.613l25.613-6L634.49,257.903z M624.106,263.672l-20.998,20.998
		c-0.692-0.923-1.387-2.077-1.846-3.461c-0.461-1.385-0.695-2.769-0.695-3.923c0-1.154,0-2.308,0.233-3.231l20.535-20.537
		l0.457,0.462c1.154,1.154,2.077,2.769,2.308,4.615C624.799,260.672,624.568,262.288,624.106,263.672z M616.492,241.751
		c0.923-1.154,2.538-1.385,4.846-1.154c2.307,0.231,4.156,1.154,5.538,2.538l3,3c1.387,1.385,2.307,3.231,2.541,5.538
		c0.235,2.308,0,3.923-1.154,5.077l-2.764,3c-0.462-3-1.615-5.538-3.461-7.615l-3.923-3.923c-1.846-1.846-4.38-3-7.615-3.461
		L616.492,241.751z M608.415,249.596c0.923-0.923,2.538-1.385,4.846-1.154c2.307,0.231,4.156,1.154,5.538,2.538l0.462,0.462
		l-20.537,20.537c-0.921,0.231-1.846,0.231-3.228,0.231c-1.154,0-2.541-0.231-3.918-0.692c-1.391-0.461-2.545-1.154-3.461-1.846
		L608.415,249.596z M587.878,292.285c-0.692-1.846-1.613-3.461-2.767-4.615c-1.154-1.154-2.541-2.077-4.615-2.769l1.851-9.461
		l3.461-3.461c1.385,1.154,3.224,2.077,5.307,2.769c2.072,0.692,3.923,1.154,5.533,1.154c0,1.615,0.459,3.692,1.154,5.769
		c0.697,2.077,1.613,3.923,2.767,5.307l-3.231,3.461L587.878,292.285z"/>
	<path fill="#231815" d="M495.809,84.84c14.307,0,25.383-4.846,25.383-10.615v-6.23h4.384c6.923,0,12.691-5.769,12.691-12.922
		s-5.538-12.922-12.691-12.922h-4.384v-6.23c0-6-11.076-10.615-25.383-10.615c-14.307,0-25.383,4.846-25.383,10.615v38.305
		C470.426,80.225,481.502,84.84,495.809,84.84z M521.191,49.996h5.538c1.846,0,3.23,0.692,3.692,1.385
		c0.692,0.692,1.615,1.615,1.615,3.461c0,2.077-0.923,3-1.615,3.692c-0.692,0.692-1.846,1.385-3.692,1.385h-5.538V49.996z
		 M481.963,33.382c3.923-1.385,8.769-2.077,13.845-2.077c5.077,0,9.922,0.692,13.845,2.077c2.538,0.923,3.923,1.615,4.846,2.308
		c-0.923,0.692-2.308,1.615-4.846,2.308c-3.923,1.385-8.769,2.077-13.845,2.077c-5.077,0-9.922-0.692-13.845-2.077
		c-2.538-0.923-3.923-1.615-4.846-2.308C477.81,34.997,479.425,34.305,481.963,33.382z"/>
	<path fill="#231815" d="M520.037,386.663c6,5.536,14.076,8.769,22.152,8.769c9.461,0,18.46-4.154,24.69-11.076
		c12.461-13.614,11.307-34.613-2.307-47.073c-6-5.538-14.076-8.538-22.152-8.538c-9.461,0-18.46,3.923-24.69,10.845
		c-6,6.692-8.999,15.23-8.538,23.998C509.654,372.356,513.576,380.663,520.037,386.663z M562.496,380.202
		c-4.615,5.074-10.615,8.076-17.076,8.769c0-0.692,0.231-1.615,0.231-2.308l0.923,0.231c0.923,0.233,1.615-0.461,1.846-1.154v-0.231
		c0.231-0.692,0-1.154-0.461-1.615c-0.231-0.231-0.461-0.231-0.692-0.461l-0.923-0.231c0.461-1.387,0.923-2.769,1.615-3.923
		l0.692,0.461c0.692,0.462,1.615,0,2.077-0.692v-0.231c0.231-0.692,0.231-1.385-0.231-1.846l-0.231-0.231l-0.692-0.462
		c0.692-1.154,1.615-2.307,2.538-3.461l0.692,0.462c0.692,0.459,1.615,0.459,2.307-0.238l0.231-0.231
		c0.461-0.697,0.461-1.615-0.231-2.308l-0.692-0.697c0.923-0.918,2.077-1.848,3.231-2.764l0.461,0.692l0.231,0.235
		c0.461,0.457,1.385,0.457,2.077,0.233h0.231c0.692-0.461,0.923-1.385,0.462-2.077l-0.462-0.692
		c1.154-0.692,2.538-1.385,3.923-1.846l0.231,0.692c0,0.231,0.231,0.461,0.461,0.692c0.461,0.461,1.154,0.461,1.615,0.231h0.231
		c0.923-0.231,1.385-1.154,0.923-2.077l-0.231-0.692c0.461-0.231,1.154-0.231,1.846-0.461
		C569.649,368.433,567.341,375.125,562.496,380.202z M541.036,347.204l-0.231-0.231l-0.692-0.462c0.692-1.385,1.385-3,1.846-4.615
		l0.923,0.231c0.461,0,0.692,0,1.154-0.231s0.692-0.692,0.923-1.154v-0.231c0.231-0.692,0-1.385-0.462-1.846
		c-0.231-0.231-0.461-0.231-0.692-0.462l-0.923-0.231c0.231-0.923,0.231-1.615,0.461-2.538c6.461,0,12.691,2.308,17.768,6.923
		c5.077,4.615,8.076,10.615,8.769,17.076c-0.923,0.231-1.615,0.462-2.538,0.692l-0.231-0.923c0-0.231-0.231-0.461-0.461-0.692
		c-0.461-0.461-1.154-0.461-1.846-0.231h-0.231c-0.461,0.231-0.923,0.461-1.154,0.923c-0.231,0.461-0.231,0.692,0,1.154l0.231,0.923
		c-1.615,0.692-3,1.385-4.384,2.077l-0.461-0.692l-0.231-0.231c-0.461-0.461-1.385-0.461-2.077,0l-0.231,0.231
		c-0.461,0.231-0.692,0.692-0.692,1.154s0,0.923,0.231,1.154l0.461,0.692c-1.385,0.923-2.538,2.077-3.692,3.23l-0.692-0.692
		c-0.692-0.461-1.615-0.461-2.307,0.231l-0.231,0.233c-0.692,0.697-0.692,1.851,0,2.308l0.692,0.697
		c-0.923,1.154-1.846,2.538-2.769,3.918l-0.692-0.457c-0.231-0.238-0.692-0.238-1.154-0.238c-0.461,0.238-0.923,0.461-1.154,0.923
		v0.231c-0.461,0-0.461,0.695,0,1.391l0.231,0.231l0.692,0.461c-0.692,1.389-1.154,3-1.615,4.615l-0.923-0.238
		c-0.461,0-0.692,0-1.154,0.233s-0.692,0.692-0.923,1.154v0.233c-0.231,0.695,0,1.389,0.462,1.848
		c0.231,0.233,0.461,0.233,0.692,0.459l0.923,0.235c-0.231,0.918-0.231,2.072-0.461,3.226c-6.461,0-13.153-2.308-18.229-6.923
		c-5.307-4.615-8.076-11.078-8.769-17.539c0.923-0.231,2.077-0.461,3-0.692l0.231,0.923c0,0.231,0.231,0.461,0.461,0.692
		c0.461,0.461,1.154,0.461,1.846,0.231h0.231c0.461-0.231,0.923-0.461,1.154-0.923c0.231-0.462,0.231-0.692,0-1.154l-0.231-0.692
		c1.615-0.692,3-1.385,4.384-2.077l0.461,0.692l0.231,0.231c0.461,0.461,1.385,0.461,2.077,0l0.231-0.231
		c0.461-0.231,0.692-0.692,0.692-1.154s0-0.923-0.231-1.154l-0.461-0.692c1.385-0.923,2.538-2.077,3.692-3.231l0.692,0.692
		c0.692,0.461,1.615,0.461,2.307-0.231l0.231-0.231c0.692-0.692,0.692-1.846,0-2.308c0,0-0.231-0.231-0.692-0.461
		c0.923-1.154,1.846-2.538,2.769-3.923l0.692,0.461c0.231,0.231,0.692,0.231,1.154,0.231c0.461-0.231,0.923-0.461,1.154-0.923
		v-0.231C541.728,348.589,541.497,347.666,541.036,347.204z M522.345,343.743c4.615-5.077,10.845-8.076,17.306-8.769
		c0,0.692-0.231,1.154-0.231,1.846l-0.923-0.231c-0.923-0.231-1.615,0.461-1.846,1.154v0.231c-0.231,0.692,0,1.154,0.461,1.615
		c0.231,0.231,0.461,0.231,0.692,0.462l0.923,0.231c-0.461,1.385-0.923,2.769-1.615,3.923l-0.692-0.462
		c-0.692-0.461-1.615,0-2.077,0.692v0.231c-0.231,0.692-0.231,1.385,0.231,1.846l0.231,0.231l0.692,0.462
		c-0.692,1.154-1.615,2.307-2.538,3.461c-0.461-0.231-0.692-0.462-0.692-0.462c-0.692-0.461-1.615-0.461-2.307,0.231v0.231
		c-0.461,0.692-0.461,1.615,0,2.307l0.692,0.462c-0.923,0.923-2.077,1.846-3.231,2.769l-0.461-0.692l-0.231-0.231
		c-0.461-0.461-1.385-0.461-2.077-0.231h-0.231c-0.692,0.461-0.923,1.385-0.461,2.077l0.461,0.692
		c-1.154,0.692-2.538,1.385-3.923,1.846l-0.231-0.692c0-0.231-0.231-0.461-0.462-0.692c-0.461-0.461-1.154-0.461-1.615-0.231h-0.231
		c-0.923,0.231-1.385,1.154-0.923,2.077l0.231,0.692c-0.692,0.231-1.615,0.461-2.307,0.461
		C515.422,355.281,517.73,348.82,522.345,343.743z"/>
	<path fill="#231815" d="M361.05,577.033c2.538-11.307,0.923-23.767-3.923-35.074c-11.307-4.846-23.767-6.461-35.074-4.154
		c-10.845,2.074-20.537,7.615-28.613,15.46c-7.846,7.839-13.153,17.766-15.23,28.606c-2.307,11.307-0.692,23.772,4.154,35.074
		c10.845,4.85,23.767,6.461,35.074,4.154c10.845-2.07,20.537-7.379,28.382-15.456C353.666,597.8,358.973,587.878,361.05,577.033z
		 M334.513,541.728l22.844,22.838c0,4.853-0.692,9.692-1.846,14.307l-35.305-35.305C324.822,542.42,329.667,541.728,334.513,541.728
		z M304.977,616.953l-22.844-22.844c0-4.846,0.462-9.689,1.846-14.304l35.305,35.31
		C314.669,616.261,309.823,616.953,304.977,616.953z M330.36,575.879c0.231,0.231,0.231,0.921,0,1.154l-0.923,0.921
		c-0.231,0.233-0.923,0.233-1.154,0l-2.538-2.543l-3.923,3.923l2.538,2.538c0.231,0.238,0.231,0.923,0,1.154l-0.923,0.923
		c-0.231,0.231-0.923,0.231-1.154,0l-2.538-2.545l-3.923,3.923l2.538,2.541c0.231,0.235,0.231,0.921,0,1.154l-0.923,0.921
		c-0.231,0.233-0.923,0.233-1.154,0l-2.538-2.541l-3.923,3.925l-2.077-2.077l3.923-3.923l-2.538-2.541
		c-0.231-0.233-0.231-0.921,0-1.154l0.923-0.921c0.231-0.233,0.923-0.233,1.154,0l2.538,2.541l3.923-3.92l-2.538-2.543
		c-0.231-0.231-0.231-0.918,0-1.154l0.923-0.918c0.231-0.235,0.923-0.235,1.154,0l2.538,2.541l3.923-3.918l-2.538-2.543
		c-0.231-0.235-0.231-0.918,0-1.154l0.923-0.918c0.231-0.235,0.923-0.235,1.154,0l2.538,2.541l3.923-3.923l2.077,2.077l-3.923,3.92
		L330.36,575.879z"/>
	<path fill="#231815" d="M225.598,469.964c-1.154-0.921-2.538-1.154-3.923-0.692c1.615,2.307,0.923,8.307,4.615,6.923
		C225.137,473.887,225.368,472.041,225.598,469.964z"/>
	<path fill="#231815" d="M205.985,463.272c-0.461,0-0.692-0.238-1.154-0.238c0,2.308,1.385,8.314,4.384,8.999
		c0.461,0.231,1.154,0.231,1.615,0C208.292,468.58,209.215,464.426,205.985,463.272z"/>
	<path fill="#231815" d="M195.601,459.58c0.692,3,1.615,9.463,4.846,10.153c0.462,0.231,1.154,0.231,1.846,0
		c-1.385-2.769-3-5.769-3-8.538C198.139,460.734,196.755,460.503,195.601,459.58z"/>
	<path fill="#231815" d="M187.524,456.811c-1.154,1.848,0.692,10.153,4.846,11.307c0,0,0.231,0,0.461,0s0.692,0,1.154,0
		C193.293,465.118,190.063,457.965,187.524,456.811z"/>
	<path fill="#231815" d="M268.98,469.964l-0.231-0.231c-0.923-0.692-1.846-0.923-2.769-0.923c-1.154,0-2.077,0.462-3,0.692
		c-0.231,0.238-0.692,0.462-0.923,0.462c-2.307,0.461-4.846,0.692-7.384,0.692c-4.154,0-8.307-0.692-12.461-1.385
		c-3.923-0.923-7.846-1.846-11.307-2.769c-20.306-5.536-39.459-13.153-59.765-21.46c-5.538-2.077-11.307-4.384-16.845-6.692
		c-10.384-3.92-20.075-7.615-30.459-11.3c-6.923-2.308-13.845-4.853-20.998-7.619c-10.615-4.156-25.383-9.23-38.536-13.148
		c-0.923-0.461-2.077-0.923-3.461-1.391c-3-1.154-6.23-2.538-9.23-2.538c-1.846,0-3.231,0.461-4.384,1.385
		c-5.307,4.615-16.614,23.77-10.615,32.543c2.077,2.764,6.923,4.154,11.768,5.531c0.692,0.238,1.615,0.462,2.308,0.695
		c27.69,8.076,55.38,13.612,82.148,19.157c21.229,4.377,42.92,8.769,64.61,14.302c2.308,0.459,4.615,0.921,6.692,1.389
		c2.077,0.462,4.384,0.692,6.692,1.389h0.231c12.23,3.226,27.229,7.379,37.843,14.763c1.385,0.692,2.308,1.846,3.461,3
		c1.615,1.851,3.231,3.461,5.538,4.384l0.923,0.457l0.923-0.457c11.999-8.076,15.46-19.614,9.461-30.695L268.98,469.964z
		 M258.365,494.655c-8.538-8.538-18.922-13.384-29.767-16.845c-3.461-1.154-7.153-2.307-10.845-3.23
		c-0.009-0.002-0.018-0.005-0.03-0.007c0.448-0.005,1.011-0.023,1.412-0.224c-2.077-3.461-1.615-7.156-4.615-8.309
		c-0.231,0-0.692-0.235-0.923-0.235c-0.224,2.234,0.865,7.656,3.653,8.642c-2.601-0.648-5.203-1.297-7.804-1.954
		c-0.923-0.233-1.846-0.457-2.769-0.695c-2.077-0.459-4.154-1.154-6.23-1.613c-2.769-0.457-5.307-1.154-7.846-1.848h-0.231
		c-13.153-3.224-26.536-6.461-39.689-9.23c-18.229-3.692-35.997-8.307-53.996-12.922c-17.768-4.615-36.228-7.846-53.534-14.768
		c0.692-8.307,2.769-16.383,6-24.229c45.92,12.936,90.685,31.396,135.682,48.702c-2.077,3-3.692,6-3.231,9.461
		c2.077-3,1.846-6.23,3.923-9.23c0.231,0,0.461,0.233,0.692,0.233c2.538,0.921,5.307,1.851,8.076,2.767
		c3.461,1.154,6.923,2.545,10.384,3.699c2.769,1.154,5.538,2.07,8.307,3c5.077,1.846,10.153,3.461,15.23,4.85
		c-1.385,2.072-3.461,5.533-1.385,7.156c2.308-2.308,1.846-4.848,3.231-7.156c11.076,2.072,21.921,5.769,34.613,1.154
		c1.154,2.764-2.538,3.918-4.384,4.38c-7.153,2.072-18.229-1.846-23.767-1.615c8.769,3.004,17.537,6.23,27.459,3.004
		C263.903,483.348,262.288,489.116,258.365,494.655z M260.903,493.501c3.231-5.538,4.846-13.153,6.692-17.768
		C267.826,481.963,266.441,489.578,260.903,493.501z"/>
	<path fill="#231815" d="M84.84,420.122c-11.076-3.923-21.46-8.309-32.767-10.153c-0.692,0.233-1.154,0.692-1.615,0.923
		c1.385,2.769,5.077,2.308,7.384,3c28.613,8.307,58.38,19.614,86.993,30.459c10.615,3.923,20.768,8.538,31.844,10.845
		c-9.922-4.615-20.306-8.538-30.459-12.691C125.914,434.659,105.377,427.737,84.84,420.122z"/>
	<path fill="#231815" d="M878.164,682.717c0-0.231,0-0.692-0.462-0.692h-4.615c-0.238,0-0.462,0.231-0.462,0.692l-1.615,7.615
		l-1.615,7.846c0,0.231-0.231,0.692-0.455,0.692h-3.237h-0.462c-3.224,0-2.769-2.538-2.307-5.538v-0.231v-0.462l0.238-0.692
		l0.231-0.923c0-0.231,0.231-0.692,0.231-0.916l0.699-3.699l0.692-3.692c0-0.231,0-0.692-0.462-0.692h-4.846
		c-0.238,0-0.462,0.231-0.462,0.692l-0.923,4.846l-0.937,4.846v0.462c-1.154,5.307-0.923,10.615,5.531,10.843l0.238,0.233h10.146
		c0.238,0,0.462-0.233,0.462-0.462l2.077-10.153l0.692-3.461L878.164,682.717z"/>
	<path fill="#231815" d="M819.091,696.331l-0.692,3.692l0.692-3.231C819.091,696.562,819.091,696.562,819.091,696.331z"/>
	<polygon fill="#231815" points="820.014,692.639 819.322,695.87 819.322,696.101 	"/>
	<path fill="#231815" d="M827.86,682.255h-4.846c-0.231,0-0.462,0.233-0.462,0.461l-0.461,2.077l-0.455,1.846
		c0,0.231,0,0.231,0.455,0.231h5.077c0.238,0,0.462,0,0.462-0.231l0.231-2.077l0.238-2.074
		C828.091,682.486,828.091,682.255,827.86,682.255z"/>
	<path fill="#231815" d="M821.399,689.178c-0.231,0-0.462,0.233-0.462,0.461l-0.692,3.231l-0.692,3.231
		c0,0.233-0.231,0.692-0.231,0.923l-0.692,3.231l-0.692,3.23c0,0.231-0.231,0.692-0.231,0.923c0,0-0.923,2.767-2.545,2.767h-0.224
		c-0.692,0-1.385,0-1.385,0c-0.238,0-0.462,0.233-0.462,0.457l-0.462,2.308l-0.461,2.307c0,0.238,0,0.462,0.461,0.462
		c0.923,0,3,0,4.154,0c3.923,0,6.23-2.308,7.615-8.769l1.615-7.384l1.391-6.923c-0.462-0.461-0.699-0.461-0.923-0.461
		L821.399,689.178L821.399,689.178z"/>
	<path fill="#231815" d="M921.084,687.332l-0.231-0.923l-0.231-0.923v-0.461c-0.461-1.615-1.615-2.538-4.377-2.538l-4.16-0.231
		l-3.916-0.231h-0.238h-3.923c-0.231,0-0.692,0.461-0.692,0.692l-0.231,0.923l-0.238,1.154v0.231l-1.846,8.999l-1.846,8.536v0.457
		c0,0,0,0,0,0.238c0,0.171,0.141,0.312,0.3,0.388c0.138,0.166,0.445,0.305,0.625,0.305h3.916c0.238,0,0.699-0.233,0.699-0.233
		s0,0,0.231-0.235l0.231-0.235v-0.219v-0.231l0.699-3.461l0.692-3.461v-0.231c0-0.231,0-0.231,0-0.459l0.692-3.694l0.692-3.461
		c0-0.231,0.238-0.461,0.461-0.461l12.23,0.238C920.853,687.794,921.084,687.563,921.084,687.332z"/>
	<path fill="#231815" d="M938.39,679.256h-1.385c-0.923,0-0.923,0-1.391,0h-3.923c-0.231,0-0.692,0.231-0.692,0.462l-8.538,12.691
		c-0.231,0.231-0.231,0.231-0.455,0l-0.692-2.769c0-0.231-0.231-0.461-0.455-0.461h-5.538c-0.231,0-0.461,0.233-0.231,0.461
		l2.538,8.769c0,0.233,0,0.692,0,0.923l-1.161,4.154c0,0.231,0,0.462,0.462,0.462h5.531c0.238,0,0.462-0.233,0.699-0.462
		l1.154-4.154c0-0.233,0.231-0.692,0.455-0.923l14.083-18.691C938.621,679.487,938.621,679.256,938.39,679.256z"/>
	<path fill="#231815" d="M890.394,682.255c-8.999-0.231-11.076,5.307-12.23,10.845s-0.923,10.845,8.307,10.845
		c0.074,0,0.155,0,0.231,0c0.076,0,0.155,0,0.238,0s0.148,0,0.231,0c0.083,0,0.152,0,0.238,0c0.228,0,0.452,0,0.692,0
		c0.148,0,0.307,0,0.462,0c0.148,0,0.305,0,0.459,0c0.072,0,0.15,0,0.233,0c2.081,0,4.153,0,5.307,0
		c0.235,0,0.461-0.233,0.461-0.462l0.462-1.846l0.231,1.846l0.462-1.846v-0.462v-0.231l0.461-1.848c0,0,0,0,0-0.235
		c0-0.235-0.238-0.462-0.461-0.462v0.462h-8.321c-3,0-4.154-0.918-3.916-3.226c0-0.235,0.231-0.697,0.455-0.697h12.929
		c0.231,0,0.462,0,0.462-0.231C899.854,687.101,899.393,682.255,890.394,682.255z M892.24,691.255h-6.923
		c-0.231,0-0.462-0.461-0.231-0.461c0,0,0,0,0-0.231c0.692-1.848,2.07-3.002,4.615-3.002c2.762-0.235,3,1.154,3,2.764
		C892.47,690.563,892.47,691.255,892.24,691.255z"/>
	<path fill="#231815" d="M844.013,676.717c-9.23,0-13.146,6.461-14.537,13.607c-1.615,7.16,0.462,13.614,9.468,13.388h7.153h6.692
		c0.231,0,0.455-0.235,0.692-0.459l1.154-4.384c0-0.231,0-0.462-0.461-0.462h-0.923h-0.231h-0.923h-0.238
		c-0.231,0-0.231-0.231-0.231-0.231s2.538-6.23,3-9.692C855.55,683.64,853.243,676.717,844.013,676.717z M848.166,690.101
		l-0.238,0.462l-0.916,3.692l-0.923,3.461c0,0.231-0.231,0.231-0.692,0.231h-5.307c-4.16,0-5.077-3-4.16-7.839
		c0.923-4.853,3.007-7.619,6.923-8.076C848.166,681.794,849.32,685.717,848.166,690.101z"/>
	<path fill="#231815" d="M794.862,703.023c-0.231,0-0.461,0-0.461-0.231c0,0,0,0-0.231,0s-0.462,0-0.462-0.233
		c-0.231,0-0.231,0-0.462-0.235c0,0,0,0-0.231,0c-0.231,0-0.231-0.235-0.461-0.235s-0.231-0.233-0.462-0.233c0,0,0,0-0.231,0
		c0,0-0.231,0-0.231-0.233c0,0-0.238,0-0.238-0.235c-0.233,0-0.233-0.231-0.461-0.231c0,0,0,0-0.231,0
		c-0.235,0-0.462-0.235-0.462-0.235s0,0-0.233,0c-0.235,0-0.235-0.233-0.459-0.233c0,0,0,0-0.235,0
		c-0.233,0-0.233-0.233-0.459-0.233c0,0,0,0-0.235-0.235l-0.231-0.231c0,0,0,0-0.235,0c-0.233,0-0.233-0.235-0.461-0.235
		c-0.233-0.235-0.233-0.235-0.457-0.464c0,0,0,0-0.235,0l-0.233-0.231c0,0,0,0-0.238-0.231c-0.231-0.233-0.231-0.233-0.455-0.464
		c-0.233-0.231-0.235-0.231-0.462-0.459l-0.238-0.231c0,0,0,0,0-0.233c0-0.238-0.231-0.238-0.231-0.462
		c-2.767-3.697-3.692-8.999-1.613-13.384l-2.072,2.541c-2.543,3.692-2.307,8.307-0.235,12.228c0,0,0,0.235,0.235,0.235v0.231v0.235
		l0.231,0.235v0.233l0.233,0.233c0,0,0,0,0,0.235c0,0.231,0.235,0.231,0.235,0.455c0,0.238,0.233,0.238,0.233,0.464c0,0,0,0,0,0.235
		l0.235,0.231c0,0,0,0,0,0.235c0.231,0.233,0.231,0.233,0.459,0.464c0.233,0.231,0.233,0.231,0.459,0.455c0,0,0,0,0,0.235
		l0.235,0.233c0,0,0,0,0.231,0c0.235,0.233,0.235,0.233,0.462,0.462c0.233,0,0.233,0.231,0.462,0.231c0,0,0,0,0.231,0.235
		l0.235,0.233c0,0,0,0,0.233,0.238l0.235,0.231c0,0,0,0,0.233,0l0.231,0.231c0,0,0,0,0.235,0c0.233,0,0.233,0.238,0.464,0.238
		c0,0,0,0,0.231,0c0.231,0,0.231,0.231,0.459,0.231h0.233c0,0,0.238,0,0.238,0.238c0.231,0,0.231,0.231,0.455,0.231
		c0.238,0,0.238,0.231,0.461,0.231c0,0,0,0,0.238,0c0.231,0,0.231,0.238,0.455,0.238c0.238,0,0.461,0.231,0.461,0.231s0,0,0.238,0
		c0.231,0,0.455,0.238,0.455,0.238c12.237,2.308,15.698-7.384,15.698-7.384C805.016,703.023,799.708,704.177,794.862,703.023z"/>
	<path fill="#231815" d="M799.016,695.178c-0.231,0-0.455,0-0.455-0.238c0,0,0,0-0.238,0c-0.231,0-0.231,0-0.462-0.231
		c0,0,0,0-0.231,0s-0.231,0-0.461-0.238c-0.231,0-0.231-0.231-0.462-0.231c0,0-0.231,0-0.231-0.231c0,0,0,0-0.231,0l-0.231-0.217
		c-0.231,0-0.231-0.231-0.461-0.231c0,0-0.231,0-0.231-0.233c-0.231-0.235-0.231-0.235-0.462-0.459
		c-1.846-1.391-3.224-3.231-3.923-5.538c-0.692-2.307-0.455-4.846,0.699-6.923l-1.391,2.077c-1.846,2.538-1.615,6.228-0.233,8.992
		c0.233,0.461,0.464,0.916,0.695,1.391c0.231,0.459,0.459,0.916,0.923,1.154c0.231,0.231,0.231,0.231,0.455,0.459
		c0.235,0.233,0.235,0.233,0.462,0.457c0.238,0.238,0.238,0.238,0.461,0.462c0.224,0.224,0.231,0.235,0.459,0.462
		c0,0,0.233,0,0.233,0.231c0.238,0,0.238,0.238,0.462,0.238l0.231,0.231c0,0,0,0,0.238,0c0,0,0.231,0,0.231,0.231
		c0.238,0,0.238,0.238,0.462,0.238s0.231,0,0.462,0.231c0,0,0,0,0.231,0c0.238,0,0.238,0,0.461,0.238c0,0,0,0,0.231,0
		c0.238,0,0.462,0.231,0.462,0.231c9.468,1.615,11.538-5.769,11.538-5.769C806.862,694.947,802.939,696.331,799.016,695.178z"/>
	<path fill="#231815" d="M796.247,680.64c-1.154,1.615-1.154,3.461-0.461,5.31c0.916,1.851,2.538,3.228,4.615,3.92h0.231h0.238
		c5.307,0.923,6.685-2.767,6.923-3.224c-1.154,1.846-3.231,2.307-5.769,1.611c-0.238,0-0.462-0.233-0.699-0.233
		c-0.231,0-0.455-0.231-0.692-0.231c-0.462-0.233-0.916-0.462-1.385-0.692c-2.307-1.615-3.699-5.077-2.307-7.617L796.247,680.64z"/>
	<path fill="#231815" d="M463.273,205.061h142.835c4.846,0,8.999-3.923,8.999-8.999v-65.533c-0.238-4.846-4.156-8.999-8.999-8.999
		H463.273c-4.846,0-8.999,3.923-8.999,8.999v65.533C454.273,200.908,458.196,205.061,463.273,205.061z M459.35,130.529
		c0-2.077,1.846-3.923,3.923-3.923h142.835c2.077,0,3.923,1.846,3.923,3.923v65.533c0,2.077-1.846,3.923-3.923,3.923H463.273
		c-2.077,0-3.923-1.846-3.923-3.923L459.35,130.529L459.35,130.529z"/>
	<path fill="#231815" d="M508.038,179.679c1.154,0,2.308-1.154,2.308-2.308v-4.615c0-1.154-1.154-2.308-2.308-2.308h-6.923
		c-1.154,0-2.308,1.154-2.308,2.308v4.615c0,1.154,1.154,2.308,2.308,2.308H508.038z"/>
	<path fill="#231815" d="M512.653,177.371c0,1.154,1.154,2.308,2.307,2.308h6.923c1.154,0,2.307-1.154,2.307-2.308v-4.615
		c0-1.154-1.154-2.308-2.307-2.308h-6.923c-1.154,0-2.307,1.154-2.307,2.308V177.371z"/>
	<path fill="#231815" d="M535.729,179.679c1.154,0,2.307-1.154,2.307-2.308v-4.615c0-1.154-1.154-2.308-2.307-2.308h-4.615
		c-1.154,0-2.307,1.154-2.307,2.308v4.615c0,1.154,1.154,2.308,2.307,2.308H535.729z"/>
	<path fill="#231815" d="M551.881,179.679c1.154,0,2.308-1.154,2.308-2.308v-4.615c0-1.154-1.154-2.308-2.308-2.308h-4.615
		c-1.154,0-2.308,1.154-2.308,2.308v4.615c0,1.154,1.154,2.308,2.308,2.308H551.881z"/>
	<path fill="#231815" d="M570.341,177.371v-4.615c0-1.154-1.154-2.308-2.307-2.308h-6.923c-1.154,0-2.308,1.154-2.308,2.308v4.615
		c0,1.154,1.154,2.308,2.308,2.308h6.923C569.188,179.679,570.341,178.525,570.341,177.371z"/>
	<path fill="#231815" d="M600.339,170.449h-20.768c-1.154,0-2.307,1.154-2.307,2.308v4.615c0,1.154,1.154,2.308,2.307,2.308h20.768
		c1.154,0,2.307-1.154,2.307-2.308v-4.615C602.646,171.602,601.493,170.449,600.339,170.449z"/>
	<path fill="#231815" d="M468.811,179.679h23.075c1.154,0,2.308-1.154,2.308-2.308v-4.615c0-1.154-1.154-2.308-2.308-2.308h-23.075
		c-1.154,0-2.308,1.154-2.308,2.308v4.615C466.503,178.525,467.657,179.679,468.811,179.679z"/>
	<path fill="#231815" d="M489.578,156.604v6.923c0,1.154,1.154,2.308,2.307,2.308h6.923c1.154,0,2.308-1.154,2.308-2.308v-6.923
		c0-1.154-1.154-2.308-2.308-2.308h-6.923C490.732,154.296,489.578,155.45,489.578,156.604z"/>
	<path fill="#231815" d="M510.346,165.834c1.154,0,2.308-1.154,2.308-2.308v-6.923c0-1.154-1.154-2.308-2.308-2.308h-2.308
		c-1.154,0-2.308,1.154-2.308,2.308v6.923c0,1.154,1.154,2.308,2.308,2.308H510.346z"/>
	<path fill="#231815" d="M519.576,156.604v6.923c0,1.154,1.154,2.308,2.307,2.308h6.923c1.154,0,2.307-1.154,2.307-2.308v-6.923
		c0-1.154-1.154-2.308-2.307-2.308h-6.923C520.73,154.296,519.576,155.45,519.576,156.604z"/>
	<path fill="#231815" d="M533.421,156.604v6.923c0,1.154,1.154,2.308,2.307,2.308h6.923c1.154,0,2.307-1.154,2.307-2.308v-6.923
		c0-1.154-1.154-2.308-2.307-2.308h-6.923C534.575,154.296,533.421,155.45,533.421,156.604z"/>
	<path fill="#231815" d="M551.881,156.604v6.923c0,1.154,1.154,2.308,2.308,2.308h4.615c1.154,0,2.308-1.154,2.308-2.308v-6.923
		c0-1.154-1.154-2.308-2.308-2.308h-4.615C553.035,154.296,551.881,155.45,551.881,156.604z"/>
	<path fill="#231815" d="M565.726,156.604v6.923c0,1.154,1.154,2.308,2.308,2.308h6.923c1.154,0,2.307-1.154,2.307-2.308v-6.923
		c0-1.154-1.154-2.308-2.307-2.308h-6.923C566.88,154.296,565.726,155.45,565.726,156.604z"/>
	<path fill="#231815" d="M600.339,154.296h-16.153c-1.154,0-2.308,1.154-2.308,2.308v6.923c0,1.154,1.154,2.308,2.308,2.308h16.153
		c1.154,0,2.307-1.154,2.307-2.308v-6.923C602.646,155.45,601.493,154.296,600.339,154.296z"/>
	<path fill="#231815" d="M468.811,165.834h13.845c1.154,0,2.307-1.154,2.307-2.308v-6.923c0-1.154-1.154-2.308-2.307-2.308h-13.845
		c-1.154,0-2.308,1.154-2.308,2.308v6.923C466.503,164.68,467.657,165.834,468.811,165.834z"/>
	<path fill="#231815" d="M487.271,149.681h6.923c1.154,0,2.308-1.154,2.308-2.308v-4.615c0-1.154-1.154-2.308-2.308-2.308h-6.923
		c-1.154,0-2.308,1.154-2.308,2.308v4.615C484.963,148.527,486.117,149.681,487.271,149.681z"/>
	<path fill="#231815" d="M503.423,149.681h6.923c1.154,0,2.308-1.154,2.308-2.308v-4.615c0-1.154-1.154-2.308-2.308-2.308h-6.923
		c-1.154,0-2.308,1.154-2.308,2.308v4.615C501.116,148.527,502.27,149.681,503.423,149.681z"/>
	<path fill="#231815" d="M517.268,149.681h6.923c1.154,0,2.308-1.154,2.308-2.308v-4.615c0-1.154-1.154-2.308-2.308-2.308h-6.923
		c-1.154,0-2.307,1.154-2.307,2.308v4.615C514.961,148.527,516.115,149.681,517.268,149.681z"/>
	<path fill="#231815" d="M533.421,149.681h4.615c1.154,0,2.308-1.154,2.308-2.308v-4.615c0-1.154-1.154-2.308-2.308-2.308h-4.615
		c-1.154,0-2.308,1.154-2.308,2.308v4.615C531.113,148.527,532.267,149.681,533.421,149.681z"/>
	<path fill="#231815" d="M547.266,149.681h6.923c1.154,0,2.307-1.154,2.307-2.308v-4.615c0-1.154-1.154-2.308-2.307-2.308h-6.923
		c-1.154,0-2.308,1.154-2.308,2.308v4.615C544.959,148.527,546.112,149.681,547.266,149.681z"/>
	<path fill="#231815" d="M565.726,149.681h4.615c1.154,0,2.307-1.154,2.307-2.308v-4.615c0-1.154-1.154-2.308-2.307-2.308h-4.615
		c-1.154,0-2.307,1.154-2.307,2.308v4.615C563.419,148.527,564.572,149.681,565.726,149.681z"/>
	<path fill="#231815" d="M579.571,149.681h6.923c1.154,0,2.307-1.154,2.307-2.308v-4.615c0-1.154-1.154-2.308-2.307-2.308h-6.923
		c-1.154,0-2.307,1.154-2.307,2.308v4.615C577.264,148.527,578.418,149.681,579.571,149.681z"/>
	<path fill="#231815" d="M595.724,149.681h4.615c1.154,0,2.307-1.154,2.307-2.308v-4.615c0-1.154-1.154-2.308-2.307-2.308h-4.615
		c-1.154,0-2.307,1.154-2.307,2.308v4.615C593.416,148.527,594.57,149.681,595.724,149.681z"/>
	<path fill="#231815" d="M468.811,149.681h9.23c1.154,0,2.308-1.154,2.308-2.308v-4.615c0-1.154-1.154-2.308-2.308-2.308h-9.23
		c-1.154,0-2.308,1.154-2.308,2.308v4.615C466.503,148.527,467.657,149.681,468.811,149.681z"/>
	<path fill="#231815" d="M494.193,184.294h-9.23c-1.154,0-2.307,1.154-2.307,2.308v6.923c0,1.154,1.154,2.308,2.307,2.308h9.23
		c1.154,0,2.308-1.154,2.308-2.308v-6.923C496.501,185.447,495.347,184.294,494.193,184.294z"/>
	<path fill="#231815" d="M468.811,195.831h4.615c1.154,0,2.308-1.154,2.308-2.308v-6.923c0-1.154-1.154-2.308-2.308-2.308h-4.615
		c-1.154,0-2.308,1.154-2.308,2.308v6.923C466.503,194.678,467.657,195.831,468.811,195.831z"/>
	<path fill="#231815" d="M556.496,184.294h-53.073c-1.154,0-2.308,1.154-2.308,2.308v6.923c0,1.154,1.154,2.308,2.308,2.308h53.073
		c1.154,0,2.307-1.154,2.307-2.308v-6.923C558.804,185.447,557.65,184.294,556.496,184.294z"/>
	<path fill="#231815" d="M577.264,184.294h-11.538c-1.154,0-2.307,1.154-2.307,2.308v6.923c0,1.154,1.154,2.308,2.307,2.308h11.538
		c1.154,0,2.307-1.154,2.307-2.308v-6.923C579.571,185.447,578.418,184.294,577.264,184.294z"/>
	<path fill="#231815" d="M599.647,190.062c-1.387,0-2.308,0.923-2.308,2.308s1.154,2.308,2.308,2.308
		c1.385,0,2.307-1.154,2.307-2.308S601.031,190.293,599.647,190.062z"/>
	<path fill="#231815" d="M592.955,190.062c-1.385,0-2.307,0.923-2.307,2.308s1.154,2.308,2.307,2.308
		c1.387,0,2.308-1.154,2.308-2.308S594.109,190.293,592.955,190.062z"/>
	<path fill="#231815" d="M592.955,183.371c-1.385,0-2.307,0.923-2.307,2.308s1.154,2.308,2.307,2.308
		c1.387,0,2.308-1.154,2.308-2.308C595.262,184.524,594.109,183.371,592.955,183.371z"/>
	<path fill="#231815" d="M586.032,190.062c-1.385,0-2.307,0.923-2.307,2.308s1.154,2.308,2.307,2.308
		c1.387,0,2.308-1.154,2.308-2.308S587.417,190.293,586.032,190.062z"/>
	<path fill="#231815" d="M84.609,256.75H46.074c-4.615,0-8.538,3.923-8.538,8.538v94.147c0,4.615,3.923,8.538,8.538,8.538h38.536
		c4.615,0,8.538-3.923,8.538-8.538v-94.377C93.147,260.442,89.224,256.75,84.609,256.75z M84.609,363.818H46.997
		c-3,0-5.538-2.538-5.538-5.538v-92.993c0-3,2.538-5.538,5.538-5.538h37.382c3,0,5.538,2.538,5.538,5.538v92.993h0.231
		C90.147,361.28,87.609,363.818,84.609,363.818z"/>
	<rect x="44.459" y="275.441" fill="#231815" width="41.766" height="73.379"/>
	<path fill="#231815" d="M60.15,270.595h10.384c0.462,0,0.923-0.462,0.923-0.923c0-0.462-0.462-0.923-0.923-0.923H60.15
		c-0.462,0-0.923,0.462-0.923,0.923C59.457,269.903,59.688,270.595,60.15,270.595z"/>
	<path fill="#231815" d="M65.457,351.358c-2.769,0-5.307,2.308-5.307,5.307c0,3,2.308,5.307,5.307,5.307
		c3,0,5.307-2.308,5.307-5.307C70.764,353.665,68.226,351.358,65.457,351.358z"/>
	<path fill="#231815" d="M452.196,674.409c-0.461-4.615-0.923-9.692-3.23-13.845c-2.538-4.384-9.922-12.232-15.691-15.922
		c-6-3.923-12.922-6.23-20.998-7.153c-1.154-1.154-3-1.848-5.538-1.848c-2.077,0-3.692,0.457-4.846,1.387
		c-1.846,0-3.461,0.231-4.384,0.231c-3,0.233-7.384,0.923-11.307,2.308c-6.23,2.307-12.691,6.23-17.537,11.307
		c-1.385,1.385-2.538,2.769-3.23,4.154c-3,5.307-4.846,9.461-5.769,14.307c-0.692,2.769-0.923,6.23-1.154,9.461
		c-0.231,2.307-0.231,4.384-0.461,5.538c-0.231,0.921-0.462,1.615-0.462,2.538c-0.231,0.923-0.231,1.615-0.461,2.077
		c-3,1.385-10.153,5.536-12.23,6.689l-0.231,0.233c-3.923,2.769-7.153,5.077-7.615,7.843c-0.692,3.226,1.385,6.463,5.538,8.076
		c2.308,0.918,11.768,3.002,28.382,6.002c6.461,1.154,25.613,4.154,32.536,4.154c0.461,0,0.923,0,1.154,0
		c5.769-0.231,14.076-1.615,18.229-3.692c3.692-1.615,12.922-7.617,14.999-9.468c0.461-0.231,0.692-0.692,0.923-0.916
		c0.923-0.695,1.615-1.615,2.077-2.545c3.692-0.916,6.692-2.308,8.307-3.692c1.846-1.615,3-4.853,3.23-6.692
		c0.692-5.307,0.692-11.3,0-18.222C452.427,676.025,452.196,675.332,452.196,674.409z M448.966,695.177
		c-0.231,1.385-1.154,3.461-1.846,4.154c-1.154,0.231-3.461,1.385-7.153,2.307c-2.077,0.462-5.077,0.462-7.846,0.462
		c-0.692,0-1.385,0-2.077,0c-0.692,0-1.385,0-1.846,0c-1.154,0-2.077,0-3,0c-2.077,0-4.846,0.231-7.846,0.231
		c-3.692,0-10.845,0-16.383-0.462c-7.153-0.692-18.691-2.307-26.767-4.154c-7.384-1.846-13.153-5.307-13.845-6.23
		c-0.231-0.921,0.231-2.308,0.692-3.923c0.231-0.692,0.461-1.613,0.461-2.538c0.231-1.385,0.462-3.461,0.692-6
		c0.231-3.002,0.462-6.23,0.923-8.771c0.923-4.382,2.538-8.312,5.307-13.151c0.692-1.154,1.385-2.077,2.769-3.231
		c4.615-4.615,10.615-8.307,16.153-10.384c3.461-1.154,7.615-1.846,10.384-2.077c1.154-0.231,3-0.231,5.307-0.231
		c0.692,0.462,1.846,0.462,3.692,0.462c1.385,0,2.308,0,3-0.233c6.461,0.695,14.307,2.307,21.46,6.923
		c5.077,3.226,12.23,10.841,14.537,14.763c2.077,3.461,2.538,8.076,2.769,12.23c0,0.697,0.231,1.615,0.231,2.308
		C449.427,684.332,449.427,690.101,448.966,695.177z"/>
	<path fill="#231815" d="M402.354,663.795c-0.231-2.074-1.385-4.154-3.461-5.307c-0.692-0.462-1.615-0.923-3-0.923
		c-0.231,0-0.692,0-0.923,0c-1.615,0-2.769,0.462-3.923,0.923c-0.462-0.692-1.385-1.846-3-1.846h-0.231c-1.846,0-3.23,1.154-3.461,3
		l-0.231,0.923l0.923,0.231c1.154,0.231,1.846,0.462,1.846,1.154c0,0.231,0,0.692-0.231,1.154c0,0.231,0,0.462-0.231,0.692
		l-0.231,2.077c0,0.462-0.231,1.154-0.231,1.615c-0.231,0.916-0.231,1.846-0.462,2.308c0,0.231-0.692,0.459-0.923,0.459
		c-0.462,0.233-0.692,0.233-1.154,0.695l-0.692,0.692l0.692,0.692c0.231,0.231,0.462,0.461,0.692,0.692
		c0.231,0.233,0.923,0.692,0.923,0.923c0,0.921-0.461,2.769-0.692,4.382c-0.231,0.695-0.231,1.611-0.461,2.072
		c0,0.235,0,0.692-0.231,0.918c0,0.459,0,0.921-0.231,1.154c0,0.235-0.692,0.459-1.154,0.459c-0.231,0-0.461,0-0.692,0l-0.923-0.231
		l-0.231,0.923c-0.231,0.916,0,1.844,0.692,2.538c0.692,0.923,1.846,1.385,3.23,1.385h0.231c0.923,0,1.846-0.231,2.538-0.692
		c1.154,0.692,2.308,1.387,3.692,1.615c0.923,0.231,1.615,0.459,2.538,0.459c2.538,0,4.846-1.154,6-2.997
		c0.462-0.464,0.692-1.154,0.923-1.851c0.461-1.154,0.923-2.074,1.615-2.308l1.154-0.233l-0.461-1.154
		c-0.231-0.461-0.462-0.695-0.462-0.921c-0.231-0.233-0.231-0.233-0.231-0.457c-0.231-0.464-0.462-1.391-0.462-2.077
		c0-0.462,0-0.695-0.231-1.154c-0.231-0.923-0.462-1.848-0.923-2.769l0.231-0.233c0,0,0.231-0.69,0.692-1.387
		c0.231-0.695,0.461-1.154,0.923-1.611c0,0,0.231-0.238,0.462-0.238c0.231-0.233,0.461-0.233,0.923-0.692l0.692-0.921l-0.923-0.695
		C402.354,666.795,402.354,664.949,402.354,663.795z M394.97,681.101l0.231,0.233c0,0.235,0.692,1.613,0,2.543
		c-0.231,0.462-1.154,0.918-2.538,0.918s-2.769-0.457-3.461-1.154c-0.461-0.233-0.692-0.918-0.692-1.154
		c0-0.457,0.231-1.387,0.231-2.072c0-0.462,0.231-0.918,0.231-1.154l0.231-2.072c0-0.459,0.231-1.154,0.231-1.389
		c0.462-0.692,1.615-0.918,2.538-0.918c0.231,0,0.231,0,0.461,0c2.077,0.233,3.23,1.387,3.461,2.541
		c0.231,0.692,0,1.154-0.692,1.846c0,0,0,0-0.231,0c-0.231,0.231-0.461,0.231-0.692,0.695
		C394.739,680.409,394.739,680.871,394.97,681.101z M397.508,666.795c-0.231,0.238-0.231,0.238-0.461,0.461l-0.461,0.462
		l0.231,0.231c0.231,0.695,0.461,0.923,0.461,1.391c-0.231,1.387-1.615,2.07-2.769,2.07c-0.231,0-0.461,0-0.461,0
		c-1.385-0.231-2.538-0.916-3-1.385c-0.231-0.462,0-1.385,0-2.308c0-0.462,0-0.692,0.231-1.154c0-0.923,0.231-1.846,0.461-2.307
		c0.461-0.923,1.615-1.385,2.769-1.385h0.231c1.846,0.231,2.769,1.154,3,1.846c0.231,0.462,0.462,0.921,0.462,1.385
		C398.2,666.333,397.97,666.564,397.508,666.795z"/>
	<path fill="#231815" d="M1070.61,649.95c-0.916-1.615-1.846-3.228-2.769-4.846c-0.454-0.692-1.608-0.461-2.307-0.461
		c-0.692,0-2.307-0.231-2.762,0.461c-2.307,3.923-4.615,7.615-6.922,11.538c-0.462,0.692-0.923,1.615-1.391,2.307
		c-0.231,0.692-0.916,1.615,0.238,1.615c1.154,0,2.307,0,3.461,0c0.455,0,1.154,0.231,1.385,0c0.231-0.238,0.462-0.695,0.692-1.154
		c0.238,0,0.462-0.923,0.692-0.923c0.238,0,0.699,0,0.923,0c1.385,0,2.769,0,4.153,0c0.923,0,1.846,0,2.769,0
		c0.231,0,0.692,0.923,0.692,1.154c0.238,0.231,0.462,0.923,0.923,0.923c1.385,0,3,0,4.615-0.238c1.385,0,0.916-0.916,0.462-1.611
		C1073.841,655.719,1072.226,652.95,1070.61,649.95z M1062.765,654.796c0.692-1.154,1.154-2.545,1.846-3.699
		c0.692,1.154,1.385,2.545,2.07,3.699C1065.534,654.796,1064.15,654.796,1062.765,654.796z"/>
	<path fill="#231815" d="M1040.151,654.104c-0.231-0.231-0.231-0.459-0.455-0.692c0,0.233,1.608-1.154,1.608-1.385
		c0.699-1.154,0.923-2.308,0.461-3.694c-0.231-1.389-1.385-2.543-2.538-3.004c-1.391-0.692-2.769-0.457-4.154-0.457
		c-1.615,0-3.461,0-5.077,0c-0.692,0-1.615,0-2.307,0s-2.545-0.235-3,0.457c-0.238,0.462,0,1.154,0,1.615c0,1.154,0,2.308,0,3.461
		c0,2.543,0,5.307,0,7.841c0,0.697,0,1.154,0,1.851c0,0.916,1.385,0.692,2.07,0.692c0.923,0,2.307,0.235,3.231,0
		c0.916-0.235,0.692-1.615,0.692-2.307c0-1.154,0-2.308,0-3.226c0.923,0,2.538-0.235,3.461,0.233
		c0.462,0.231,0.462,0.692,0.692,1.154c0.692,1.385,1.391,2.538,2.307,3.923c0.238,0.459,0.692,0.459,1.154,0.459
		c0.923,0,1.615,0,2.545,0c0.454-0.459,3.461,0,2.762-1.389C1042.459,657.796,1041.305,655.95,1040.151,654.104z M1033.69,651.566
		c-0.692,0-1.385,0-2.07,0c-0.238,0-0.699,0-0.923,0v-0.462c0-0.692,0-1.615,0-2.307c0-0.462,1.154-0.231,1.385-0.231
		c1.154,0,3.699-0.462,4.161,1.154C1036.69,651.104,1034.844,651.566,1033.69,651.566z"/>
	<path fill="#231815" d="M1060.227,646.489c0.238-0.462,0.462-0.692,0.462-1.154c-0.231-0.692-2.538-0.461-3-0.461
		c-0.692,0-2.307-0.231-2.769,0.461c-0.231,0.692-0.692,1.387-1.154,2.077c-1.154,1.846-2.307,3.692-3.461,5.536
		c-1.385-2.074-2.769-4.158-4.154-6.228c-0.462-0.462-0.923-1.615-1.615-1.615s-1.615,0-2.307,0c-0.462,0-1.154-0.233-1.615,0
		c3,1.154,3.699,4.615,2.545,7.153c1.154,1.615,2.07,3.231,3,5.077c0.462,0.695,1.154,1.615,1.615,2.538
		c0.454,0.695,0.916,0.695,1.846,0.695c0.692,0,1.846,0.459,2.307-0.457c0.462-0.462,0.692-0.923,0.916-1.391
		c1.154-2.07,2.545-4.154,3.699-6.228C1057.919,650.412,1059.073,648.566,1060.227,646.489z"/>
	<g>
		<path fill-rule="evenodd" clip-rule="evenodd" fill="#231815" d="M801.834,551.138c-2.212,0.06-4.354-0.782-5.932-2.333
			c-1.578-1.551-2.458-3.678-2.436-5.89v-10.417h-3.905c-6.103,0.035-11.088-4.866-11.156-10.969v-69.906
			c0.071-6.101,5.055-11,11.156-10.967h64.151c6.101-0.033,11.085,4.865,11.156,10.967v69.906
			c-0.07,6.102-5.054,11.001-11.156,10.967h-3.905v10.417c0.022,2.213-0.857,4.34-2.435,5.892c-1.578,1.552-3.72,2.394-5.933,2.334
			H801.834L801.834,551.138z M836.141,545.931h5.577c0.746,0.052,1.478-0.218,2.011-0.742c0.533-0.524,0.816-1.251,0.777-1.998
			v-10.417h-8.365V545.931L836.141,545.931z M799.043,543.188c0.115,1.482,1.305,2.651,2.788,2.74h23.153v-13.157h-25.942V543.188
			L799.043,543.188z M783.981,451.623v69.906c0.034,3.051,2.526,5.501,5.577,5.483h64.151c3.051,0.017,5.543-2.433,5.577-5.483
			v-69.906c-0.037-3.049-2.528-5.497-5.577-5.481h-64.149C786.511,446.125,784.018,448.573,783.981,451.623L783.981,451.623z
			 M838.372,510.291c0.005-1.322,0.538-2.587,1.481-3.514c0.943-0.927,2.217-1.439,3.539-1.421c1.322-0.017,2.596,0.494,3.539,1.421
			c0.943,0.927,1.476,2.192,1.481,3.514c-0.006,1.322-0.54,2.586-1.482,3.512c-0.943,0.926-2.216,1.438-3.537,1.421
			c-1.321,0.017-2.595-0.495-3.537-1.421C838.912,512.877,838.378,511.613,838.372,510.291L838.372,510.291z M816.893,510.291
			c0.005-1.322,0.538-2.587,1.481-3.514c0.943-0.927,2.217-1.439,3.539-1.421c1.322-0.017,2.596,0.494,3.539,1.421
			c0.943,0.927,1.476,2.192,1.481,3.514c-0.006,1.322-0.54,2.586-1.482,3.512c-0.943,0.926-2.216,1.438-3.537,1.421
			c-1.321,0.016-2.594-0.496-3.536-1.422c-0.942-0.926-1.475-2.19-1.482-3.511H816.893L816.893,510.291z M795.697,510.291
			c0.005-1.322,0.538-2.587,1.481-3.514c0.943-0.927,2.217-1.439,3.539-1.421c1.322-0.017,2.596,0.494,3.539,1.421
			c0.943,0.927,1.476,2.192,1.481,3.514c-0.006,1.322-0.54,2.586-1.482,3.512c-0.943,0.926-2.216,1.438-3.537,1.421
			c-1.321,0.017-2.595-0.495-3.537-1.421C796.237,512.877,795.704,511.613,795.697,510.291L795.697,510.291z M838.372,491.922
			c0.006-1.322,0.54-2.586,1.482-3.512c0.943-0.926,2.216-1.438,3.537-1.421c1.321-0.017,2.595,0.495,3.537,1.421
			s1.476,2.191,1.482,3.512c-0.006,1.322-0.539,2.587-1.482,3.514c-0.943,0.927-2.216,1.439-3.538,1.422
			c-1.322,0.017-2.595-0.495-3.538-1.422C838.911,494.509,838.378,493.244,838.372,491.922L838.372,491.922z M816.893,491.922
			c0.006-1.322,0.54-2.586,1.483-3.512c0.942-0.926,2.216-1.438,3.537-1.421c1.321-0.017,2.595,0.495,3.537,1.421
			c0.942,0.926,1.476,2.191,1.482,3.512c-0.006,1.322-0.539,2.587-1.482,3.514c-0.943,0.927-2.216,1.439-3.538,1.422
			c-1.321,0.016-2.595-0.496-3.537-1.423c-0.942-0.927-1.475-2.191-1.481-3.513H816.893L816.893,491.922z M795.697,491.922
			c0.006-1.322,0.54-2.586,1.482-3.512s2.216-1.438,3.537-1.421c1.321-0.017,2.595,0.495,3.537,1.421
			c0.943,0.926,1.476,2.191,1.482,3.512c-0.006,1.322-0.539,2.587-1.482,3.514c-0.943,0.927-2.216,1.439-3.538,1.422
			c-1.322,0.017-2.596-0.495-3.538-1.422C796.236,494.509,795.703,493.244,795.697,491.922L795.697,491.922z M800.717,479.313
			c-2.212,0.06-4.354-0.782-5.932-2.333c-1.578-1.551-2.458-3.678-2.436-5.89v-8.224c-0.022-2.213,0.857-4.34,2.435-5.892
			c1.578-1.552,3.72-2.394,5.933-2.334h42.12c2.213-0.06,4.354,0.782,5.933,2.334s2.458,3.679,2.435,5.892v8.224
			c0.022,2.213-0.858,4.339-2.436,5.89c-1.578,1.551-3.72,2.393-5.932,2.333H800.717L800.717,479.313z M797.929,462.866v8.224
			c-0.038,0.746,0.245,1.473,0.778,1.997c0.533,0.524,1.265,0.794,2.01,0.743h42.12c0.746,0.051,1.477-0.219,2.01-0.743
			c0.533-0.524,0.816-1.251,0.778-1.997v-8.224c0.038-0.747-0.245-1.474-0.778-1.998c-0.533-0.524-1.265-0.795-2.011-0.745h-42.117
			c-0.746-0.052-1.478,0.218-2.012,0.742c-0.534,0.524-0.817,1.251-0.779,1.998V462.866L797.929,462.866z"/>
	</g>
	<g>
		<path fill="#231815" d="M704.542,565.496h18.339c0.129,0,0.233-0.103,0.233-0.229v-18.04c0-0.127-0.104-0.229-0.233-0.229h-18.339
			c-0.129,0-0.233,0.103-0.233,0.229v18.04C704.309,565.393,704.413,565.496,704.542,565.496z"/>
		<polygon fill="#231815" points="685.212,546.992 672.378,546.992 672.37,552.457 649.298,552.457 649.298,556.778 
			672.364,556.778 672.297,601.566 685.13,601.566 685.197,556.778 692.272,556.778 692.272,552.457 685.204,552.457 		"/>
		<rect x="655.391" y="569.885" fill="#231815" width="10.332" height="17.936"/>
		<polygon fill="#231815" points="649.298,546.997 636.165,546.997 626.491,564.989 630.656,564.989 630.54,601.533 
			642.033,601.597 642.165,560.263 		"/>
		<path fill="#231815" d="M599.828,546.997h-14.207v5.46H560.38v4.32h25.241v9.525h-22.799l-0.003,9.055l20.868,9.982
			l-23.374,11.176v5.05h8.41l24.448-11.689l24.437,11.689h8.315v-5.05l-23.302-11.157l20.896-9.991l-0.014-9.065h-23.675v-9.525
			h26.117v-4.32h-26.117V546.997z M611.648,571.971l-18.507,8.849l-18.481-8.849h10.961h14.207H611.648z"/>
		<polygon fill="#231815" points="438.24,553.574 445.288,553.574 445.288,549.253 419.849,549.253 419.849,553.574 
			426.853,553.574 426.853,567.09 419.849,567.09 419.849,571.411 426.853,571.411 426.853,597.244 419.849,597.244 
			419.849,601.566 445.285,601.566 445.285,597.244 438.24,597.244 438.24,571.411 445.291,571.411 445.291,567.09 438.24,567.09 		
			"/>
		<polygon fill="#231815" points="527.173,546.996 511.703,546.996 507.634,552.457 490.66,552.457 490.66,556.778 504.415,556.778 
			494.203,570.484 494.201,570.484 494.201,570.486 490.768,575.094 494.201,575.094 494.201,597.661 479.799,597.656 
			479.799,588.711 469.466,588.711 469.466,597.652 469.466,601.526 556.359,601.566 556.359,597.683 541.081,597.677 
			541.081,578.13 553.129,578.13 553.129,574.325 541.081,574.325 541.081,564.714 526.317,564.714 526.317,574.325 
			514.269,574.325 514.269,578.13 526.317,578.13 526.317,597.672 508.408,597.666 508.408,572.182 519.885,556.778 
			556.359,556.778 556.359,552.457 523.104,552.457 		"/>
		<polygon fill="#231815" points="457.374,550.785 475.006,550.785 475.006,581.991 485.548,581.991 485.548,546.997 
			485.254,546.997 475.006,546.997 457.374,546.997 446.881,546.997 446.86,546.997 446.86,581.991 457.374,581.991 		"/>
		<polygon fill="#231815" points="471.843,584.03 471.843,583.394 471.843,556.877 460.564,556.877 460.564,582.558 446.86,597.941 
			446.86,601.566 457.941,601.526 471.843,584.684 		"/>
		<path fill="#231815" d="M722.907,573.695h-18.391c-0.129,0-0.234,0.103-0.234,0.23v18.091c0,0.127,0.105,0.23,0.234,0.23h9.15
			v0.115v0.581v8.508c0,0.064,0.053,0.115,0.117,0.115h9.24c0.065,0,0.117-0.052,0.117-0.115v-8.508v-0.581v-0.115v-0.23v-1.508
			v-16.583C723.141,573.798,723.036,573.695,722.907,573.695z"/>
	</g>
	<g>
		<path fill-rule="evenodd" clip-rule="evenodd" fill="#231815" d="M503.399,456.035l-4.792,4.794c-0.9,0.9-0.9,2.358,0,3.256
			c0.45,0.45,1.039,0.675,1.628,0.675c0.589,0,1.178-0.225,1.628-0.675l4.792-4.793c0.9-0.9,0.9-2.358,0-3.256
			C505.756,455.135,504.299,455.135,503.399,456.035L503.399,456.035z"/>
		<path fill-rule="evenodd" clip-rule="evenodd" fill="#231815" d="M519.489,447.003c5.231-1.756,9.719-7.04,10.217-12.029
			c0.126-1.266-0.797-2.394-2.062-2.521c-1.272-0.129-2.394,0.797-2.521,2.062c-0.28,2.809-3.265,6.834-7.1,8.123
			c-3.681,1.236-5.759,3.411-6.922,5.268c-3.659-2.691-8.062-4.166-12.713-4.166c-5.761,0-11.161,2.229-15.208,6.277l-15.976,15.976
			c-4.048,4.047-6.277,9.448-6.277,15.208c0,5.759,2.229,11.16,6.277,15.207c4.047,4.048,9.448,6.277,15.208,6.277
			c5.759,0,11.16-2.229,15.207-6.277l15.977-15.976c4.047-4.047,6.277-9.448,6.277-15.207c0-5.263-1.88-10.213-5.288-14.117
			C515.118,449.958,516.421,448.034,519.489,447.003L519.489,447.003z M494.362,493.151c-3.178,3.178-7.421,4.927-11.951,4.927
			c-4.53,0-8.774-1.75-11.952-4.927c-3.178-3.178-4.927-7.421-4.927-11.951c0-4.53,1.75-8.774,4.927-11.952l11.493-11.494
			c2.593,4.91,6.035,9.632,10.182,13.778c4.125,4.126,8.82,7.554,13.702,10.143L494.362,493.151L494.362,493.151z M510.339,477.175
			l-1.081,1.081c-4.931-2.424-9.703-5.819-13.866-9.98c-4.184-4.183-7.592-8.983-10.018-13.942l1.062-1.061
			c3.178-3.178,7.421-4.927,11.952-4.927c4.529,0,8.774,1.75,11.952,4.927C516.928,459.863,516.928,470.585,510.339,477.175
			L510.339,477.175z"/>
	</g>
	<g>
		<path fill-rule="evenodd" clip-rule="evenodd" fill="#231815" d="M98.084,161.124V120.14c0-8.834-7.173-16.007-16.013-16.007
			H30.838c-8.834,0-16.007,7.169-16.007,16.007v51.237c0,8.834,7.166,16.007,16.007,16.007h51.237c7.875,0,14.425-5.694,15.76-13.18
			c-4.246-1.838-22.643-9.783-32.23-14.358c-7.296,8.837-14.934,14.139-26.449,14.139c-11.515,0-19.2-7.093-18.278-15.77
			c0.609-5.697,4.515-15.014,21.491-13.416c8.944,0.839,13.04,2.511,20.332,4.918c1.888-3.456,3.456-7.269,4.645-11.318H35v-3.207
			h16.003v-5.754h-19.52v-3.53h19.523v-8.311c0,0,0.176-1.299,1.612-1.299h8.005v9.607h20.812v3.53H60.623v5.754h16.979
			c-1.562,6.353-3.929,12.191-6.896,17.289C75.638,154.261,98.084,161.124,98.084,161.124L98.084,161.124L98.084,161.124
			L98.084,161.124 M37.88,168.486c-12.167,0-14.092-7.682-13.446-10.892c0.639-3.193,4.162-7.366,10.929-7.366
			c7.772,0,14.735,1.995,23.093,6.057C52.585,163.934,45.372,168.486,37.88,168.486L37.88,168.486L37.88,168.486 M37.88,168.486
			L37.88,168.486z"/>
	</g>
	<g>
		<path fill-rule="evenodd" clip-rule="evenodd" fill="#231815" d="M610.531,430.758c13.72,0,25.864,5.755,33.294,14.59
			c0.264,0.315-10.462,5.216-23.22,10.998c-6.676,3.025-13.873,6.608-19.952,8.395c-2.559,0.837-10.621-9.956-12.467-6.796
			c-1.174,0.795,0.822,4.317,2.685,8.307c2.431,5.206,5.119,11.055,5.179,11.139c0.305,0.279,1.216,0.904,2.954,0.471
			c8.247-4.15,47.59-28.749,47.986-28.09c2.87,4.772,4.488,10.182,4.488,15.914c0,19.29-18.333,34.927-40.948,34.927
			c-4.914,0-9.626-0.738-13.991-2.092c-2.455-0.832-11.317,6.917-13.148,6.056c-0.63-0.296-0.97-0.859-0.767-1.51
			c3.214-11.215,3.089-9.258-0.565-12.279c-7.694-6.35-12.477-15.249-12.477-25.102
			C569.583,446.395,587.916,430.758,610.531,430.758L610.531,430.758z"/>
	</g>
	<g>
		<path fill-rule="evenodd" clip-rule="evenodd" fill="#231815" d="M536.526,707.214h67.464c0.547,0.071,1.106,0.107,1.672,0.107
			c7.141,0,12.93-5.792,12.93-12.936c0-6.611-4.957-12.064-11.355-12.841c1.203-2.712,1.873-5.715,1.873-8.873
			c0-12.091-9.802-21.894-21.894-21.894c-12.092,0-21.894,9.802-21.894,21.894c0,0.244,0.004,0.488,0.012,0.73
			c-2.516-6.106-8.527-10.404-15.541-10.404c-9.28,0-16.802,7.523-16.802,16.802c0,0.741,0.048,1.47,0.141,2.185
			c-6.316,0.749-11.215,6.122-11.215,12.64c0,7.03,5.699,12.729,12.729,12.729C535.285,707.352,535.912,707.305,536.526,707.214
			L536.526,707.214z M534.726,717.058c-1.025,0.14-2.072,0.213-3.135,0.213c-12.654,0-22.912-10.258-22.912-22.912
			c0-10.482,7.039-19.32,16.648-22.045c1.521-11.179,11.105-19.794,22.702-19.794c4.003,0,7.766,1.026,11.04,2.83
			c5.431-10.002,16.027-16.793,28.209-16.793c17.716,0,32.077,14.361,32.077,32.077c0,1.216-0.067,2.417-0.199,3.598
			c7.122,3.886,11.953,11.442,11.953,20.127c0,12.654-10.258,22.912-22.912,22.912c-1.064,0-2.11-0.072-3.136-0.213H534.726
			L534.726,717.058z"/>
	</g>
</g>
</svg>
